<svg width="30" height="30" viewBox="0 0 30 30" fill="none" xmlns="http://www.w3.org/2000/svg">
<path d="M15.032 2.5C8.9157 2.49921 3.7018 6.93498 2.72253 12.9724C1.74326 19.0098 5.28777 24.8662 11.0908 26.7987C11.7158 26.9112 11.9395 26.5275 11.9395 26.1975C11.9395 25.9013 11.9295 25.1162 11.9258 24.0725C8.45703 24.8225 7.72453 22.4 7.72453 22.4C7.49618 21.6462 7.00525 20.9992 6.34078 20.5763C5.21578 19.8025 6.42703 19.82 6.42703 19.82C7.22788 19.9298 7.93272 20.4043 8.33578 21.105C8.67695 21.7253 9.25173 22.1837 9.93241 22.3783C10.6131 22.5729 11.3433 22.4875 11.9608 22.1413C12.0188 21.5088 12.3002 20.9176 12.7545 20.4738C9.98703 20.16 7.07703 19.09 7.07703 14.3113C7.06167 13.0752 7.52066 11.8804 8.35953 10.9725C7.97997 9.89664 8.02467 8.71657 8.48453 7.6725C8.48453 7.6725 9.53078 7.33625 11.912 8.94875C13.9543 8.38876 16.1097 8.38876 18.152 8.94875C20.5345 7.335 21.5795 7.6725 21.5795 7.6725C22.0415 8.71607 22.0863 9.89697 21.7045 10.9725C22.5465 11.8803 23.0051 13.0783 22.9845 14.3163C22.9845 19.1075 20.072 20.16 17.2945 20.4688C17.8937 21.0813 18.201 21.9217 18.1383 22.7763C18.1383 24.4438 18.1233 25.7888 18.1233 26.1975C18.1233 26.5313 18.3458 26.9188 18.982 26.7963C24.7826 24.8604 28.3233 19.0037 27.3421 12.9679C26.3608 6.93207 21.1471 2.4986 15.032 2.5Z" fill="#434343"/>
</svg>
