<svg width="32" height="32" viewBox="0 0 32 32" fill="none" xmlns="http://www.w3.org/2000/svg">
<g clip-path="url(#clip0)">
<path d="M28.4243 14.108L22.7177 27.4378C21.8519 29.4603 19.4887 30.4066 17.4663 29.5408L10.7554 26.6678C9.76253 26.2428 8.99407 25.446 8.6037 24.4522L4.52779 14.0268C4.52779 14.0268 6.17019 13.3919 6.21483 13.3893C6.49185 13.3012 6.77942 13.3155 7.05521 13.4336C7.25745 13.5202 7.4177 13.654 7.54382 13.8168C7.57665 13.8417 10.5378 17.7745 10.5378 17.7745L15.2251 6.82566C15.5518 6.06264 16.4314 5.71039 17.1944 6.03705C17.9574 6.3637 18.3097 7.24332 17.983 8.00633L15.2281 14.4414L16.1474 14.835L19.8862 6.10164C20.2129 5.33862 21.0925 4.98638 21.8555 5.31303C22.6185 5.63968 22.9708 6.5193 22.6441 7.28232L18.9053 16.0157L19.8246 16.4092L23.1699 8.59518C23.4965 7.83216 24.3761 7.47991 25.1391 7.80656C25.9022 8.13322 26.2544 9.01283 25.9278 9.77585L22.5825 17.5899L23.5018 17.9835L25.6664 12.9273C25.993 12.1643 26.8727 11.812 27.6357 12.1387C28.3987 12.4653 28.7509 13.345 28.4243 14.108Z" fill="#06B2A7"/>
</g>
<defs>
<clipPath id="clip0">
<rect width="24" height="24" fill="white" transform="translate(9.44531) rotate(23.1761)"/>
</clipPath>
</defs>
</svg>
