<svg width="316" height="76" viewBox="0 0 316 76" fill="none" xmlns="http://www.w3.org/2000/svg">
<circle cx="37.5" cy="38.5" r="27.5" stroke="#06B2A7" stroke-opacity="0.59" stroke-width="20"/>
<line x1="40" y1="38.5" x2="90" y2="38.5" stroke="#06B2A7" stroke-opacity="0.59" stroke-width="15"/>
<circle cx="92.5" cy="37.5" r="27.5" stroke="#06B2A7" stroke-opacity="0.59" stroke-width="20"/>
<path d="M99.336 46.24C98.216 46.24 97.112 46.12 96.024 45.88C94.936 45.64 94.056 45.328 93.384 44.944L94.872 41.368C95.48 41.736 96.2 42.024 97.032 42.232C97.864 42.44 98.672 42.544 99.456 42.544C100.08 42.544 100.512 42.496 100.752 42.4C101.008 42.288 101.136 42.128 101.136 41.92C101.136 41.712 100.976 41.568 100.656 41.488C100.352 41.408 99.848 41.328 99.144 41.248C98.072 41.12 97.16 40.96 96.408 40.768C95.656 40.56 94.992 40.168 94.416 39.592C93.856 39.016 93.576 38.192 93.576 37.12C93.576 36.272 93.832 35.512 94.344 34.84C94.856 34.168 95.616 33.632 96.624 33.232C97.648 32.832 98.872 32.632 100.296 32.632C101.288 32.632 102.256 32.728 103.2 32.92C104.16 33.096 104.976 33.36 105.648 33.712L104.16 37.288C103.008 36.648 101.744 36.328 100.368 36.328C99.184 36.328 98.592 36.536 98.592 36.952C98.592 37.16 98.752 37.312 99.072 37.408C99.392 37.488 99.896 37.568 100.584 37.648C101.656 37.776 102.56 37.944 103.296 38.152C104.048 38.36 104.704 38.752 105.264 39.328C105.84 39.904 106.128 40.728 106.128 41.8C106.128 42.616 105.872 43.36 105.36 44.032C104.848 44.704 104.08 45.24 103.056 45.64C102.032 46.04 100.792 46.24 99.336 46.24ZM113.65 32.632C115.954 32.632 117.714 33.152 118.93 34.192C120.146 35.216 120.754 36.8 120.754 38.944V46H115.714V44.272C115.09 45.584 113.85 46.24 111.994 46.24C110.954 46.24 110.066 46.064 109.33 45.712C108.61 45.344 108.058 44.856 107.674 44.248C107.306 43.624 107.122 42.928 107.122 42.16C107.122 40.864 107.618 39.88 108.61 39.208C109.602 38.536 111.106 38.2 113.122 38.2H115.306C115.13 37.176 114.306 36.664 112.834 36.664C112.242 36.664 111.642 36.76 111.034 36.952C110.426 37.128 109.906 37.376 109.474 37.696L107.746 34.12C108.498 33.656 109.402 33.296 110.458 33.04C111.53 32.768 112.594 32.632 113.65 32.632ZM113.626 42.976C114.01 42.976 114.354 42.872 114.658 42.664C114.962 42.456 115.186 42.144 115.33 41.728V40.816H113.986C112.882 40.816 112.33 41.184 112.33 41.92C112.33 42.224 112.442 42.48 112.666 42.688C112.906 42.88 113.226 42.976 113.626 42.976ZM132.218 32.632C133.834 32.632 135.13 33.12 136.106 34.096C137.098 35.072 137.594 36.544 137.594 38.512V46H132.17V39.448C132.17 37.944 131.634 37.192 130.562 37.192C129.954 37.192 129.458 37.408 129.074 37.84C128.706 38.256 128.522 38.92 128.522 39.832V46H123.098V32.872H128.258V34.168C128.77 33.656 129.362 33.272 130.034 33.016C130.706 32.76 131.434 32.632 132.218 32.632ZM149.622 45.544C148.806 46.008 147.694 46.24 146.286 46.24C144.446 46.24 143.03 45.8 142.038 44.92C141.046 44.024 140.55 42.688 140.55 40.912V37.552H138.75V33.592H140.55V29.92H145.974V33.592H148.662V37.552H145.974V40.864C145.974 41.264 146.078 41.576 146.286 41.8C146.494 42.024 146.766 42.136 147.102 42.136C147.566 42.136 147.974 42.016 148.326 41.776L149.622 45.544ZM160.109 32.632C161.725 32.632 163.021 33.12 163.997 34.096C164.989 35.072 165.485 36.544 165.485 38.512V46H160.061V39.448C160.061 37.944 159.525 37.192 158.453 37.192C157.845 37.192 157.349 37.408 156.965 37.84C156.597 38.256 156.413 38.92 156.413 39.832V46H150.989V28.192H156.413V33.928C157.421 33.064 158.653 32.632 160.109 32.632ZM175.011 46.24C173.555 46.24 172.243 45.952 171.075 45.376C169.923 44.784 169.019 43.976 168.363 42.952C167.707 41.912 167.379 40.736 167.379 39.424C167.379 38.112 167.707 36.944 168.363 35.92C169.019 34.88 169.923 34.072 171.075 33.496C172.243 32.92 173.555 32.632 175.011 32.632C176.483 32.632 177.795 32.92 178.947 33.496C180.115 34.072 181.019 34.88 181.659 35.92C182.315 36.944 182.643 38.112 182.643 39.424C182.643 40.736 182.315 41.912 181.659 42.952C181.019 43.976 180.115 44.784 178.947 45.376C177.795 45.952 176.483 46.24 175.011 46.24ZM175.011 42.016C175.635 42.016 176.147 41.792 176.547 41.344C176.947 40.88 177.147 40.24 177.147 39.424C177.147 38.608 176.947 37.976 176.547 37.528C176.147 37.08 175.635 36.856 175.011 36.856C174.387 36.856 173.875 37.08 173.475 37.528C173.075 37.976 172.875 38.608 172.875 39.424C172.875 40.24 173.075 40.88 173.475 41.344C173.875 41.792 174.387 42.016 175.011 42.016ZM189.477 46.24C188.357 46.24 187.253 46.12 186.165 45.88C185.077 45.64 184.197 45.328 183.525 44.944L185.013 41.368C185.621 41.736 186.341 42.024 187.173 42.232C188.005 42.44 188.813 42.544 189.597 42.544C190.221 42.544 190.653 42.496 190.893 42.4C191.149 42.288 191.277 42.128 191.277 41.92C191.277 41.712 191.117 41.568 190.797 41.488C190.493 41.408 189.989 41.328 189.285 41.248C188.213 41.12 187.301 40.96 186.549 40.768C185.797 40.56 185.133 40.168 184.557 39.592C183.997 39.016 183.717 38.192 183.717 37.12C183.717 36.272 183.973 35.512 184.485 34.84C184.997 34.168 185.757 33.632 186.765 33.232C187.789 32.832 189.013 32.632 190.437 32.632C191.429 32.632 192.397 32.728 193.341 32.92C194.301 33.096 195.117 33.36 195.789 33.712L194.301 37.288C193.149 36.648 191.885 36.328 190.509 36.328C189.325 36.328 188.733 36.536 188.733 36.952C188.733 37.16 188.893 37.312 189.213 37.408C189.533 37.488 190.037 37.568 190.725 37.648C191.797 37.776 192.701 37.944 193.437 38.152C194.189 38.36 194.845 38.752 195.405 39.328C195.981 39.904 196.269 40.728 196.269 41.8C196.269 42.616 196.013 43.36 195.501 44.032C194.989 44.704 194.221 45.24 193.197 45.64C192.173 46.04 190.933 46.24 189.477 46.24ZM207.031 32.632C208.647 32.632 209.943 33.12 210.919 34.096C211.911 35.072 212.407 36.544 212.407 38.512V46H206.983V39.448C206.983 37.944 206.447 37.192 205.375 37.192C204.767 37.192 204.271 37.408 203.887 37.84C203.519 38.256 203.335 38.92 203.335 39.832V46H197.911V28.192H203.335V33.928C204.343 33.064 205.575 32.632 207.031 32.632ZM217.211 46.24C216.299 46.24 215.539 45.952 214.931 45.376C214.339 44.784 214.043 44.032 214.043 43.12C214.043 42.208 214.339 41.472 214.931 40.912C215.539 40.336 216.299 40.048 217.211 40.048C218.123 40.048 218.875 40.336 219.467 40.912C220.075 41.472 220.379 42.208 220.379 43.12C220.379 44.032 220.075 44.784 219.467 45.376C218.875 45.952 218.123 46.24 217.211 46.24ZM227.212 34.288C228.172 33.184 229.588 32.632 231.46 32.632V37.432C231.028 37.368 230.628 37.336 230.26 37.336C228.404 37.336 227.476 38.28 227.476 40.168V46H222.052V32.872H227.212V34.288ZM238.76 32.632C241.064 32.632 242.824 33.152 244.04 34.192C245.256 35.216 245.864 36.8 245.864 38.944V46H240.824V44.272C240.2 45.584 238.96 46.24 237.104 46.24C236.064 46.24 235.176 46.064 234.44 45.712C233.72 45.344 233.168 44.856 232.784 44.248C232.416 43.624 232.232 42.928 232.232 42.16C232.232 40.864 232.728 39.88 233.72 39.208C234.712 38.536 236.216 38.2 238.232 38.2H240.416C240.24 37.176 239.416 36.664 237.944 36.664C237.352 36.664 236.752 36.76 236.144 36.952C235.536 37.128 235.016 37.376 234.584 37.696L232.856 34.12C233.608 33.656 234.512 33.296 235.568 33.04C236.64 32.768 237.704 32.632 238.76 32.632ZM238.736 42.976C239.12 42.976 239.464 42.872 239.768 42.664C240.072 42.456 240.296 42.144 240.44 41.728V40.816H239.096C237.992 40.816 237.44 41.184 237.44 41.92C237.44 42.224 237.552 42.48 237.776 42.688C238.016 42.88 238.336 42.976 238.736 42.976ZM248.088 50.896C246.696 50.896 245.584 50.68 244.752 50.248L246.048 46.48C246.432 46.688 246.84 46.792 247.272 46.792C247.608 46.792 247.88 46.664 248.088 46.408C248.296 46.168 248.4 45.792 248.4 45.28V32.872H253.824V45.328C253.824 47.04 253.312 48.392 252.288 49.384C251.28 50.392 249.88 50.896 248.088 50.896ZM251.112 31.816C250.136 31.816 249.344 31.56 248.736 31.048C248.144 30.52 247.848 29.856 247.848 29.056C247.848 28.256 248.144 27.6 248.736 27.088C249.344 26.56 250.136 26.296 251.112 26.296C252.104 26.296 252.896 26.544 253.488 27.04C254.08 27.536 254.376 28.176 254.376 28.96C254.376 29.792 254.08 30.48 253.488 31.024C252.896 31.552 252.104 31.816 251.112 31.816ZM270.575 32.872V46H265.415V44.752C264.935 45.248 264.375 45.624 263.735 45.88C263.095 46.12 262.415 46.24 261.695 46.24C260.031 46.24 258.695 45.736 257.687 44.728C256.679 43.704 256.175 42.168 256.175 40.12V32.872H261.599V39.184C261.599 40.08 261.743 40.72 262.031 41.104C262.319 41.488 262.743 41.68 263.303 41.68C263.831 41.68 264.271 41.472 264.623 41.056C264.975 40.624 265.151 39.952 265.151 39.04V32.872H270.575Z" fill="#434343"/>
</svg>
