<svg width="30" height="30" viewBox="0 0 30 30" fill="none" xmlns="http://www.w3.org/2000/svg">
<path d="M24.9933 8.35999C26.1138 7.6901 26.9523 6.63528 27.352 5.39249C26.2991 6.01724 25.1471 6.45733 23.9458 6.69374C22.2803 4.9319 19.6414 4.50314 17.5038 5.64706C15.3661 6.79097 14.2589 9.22435 14.8008 11.5875C10.4878 11.371 6.46949 9.33363 3.74578 5.98249C2.32433 8.43426 3.05072 11.5685 5.40578 13.145C4.55417 13.1176 3.72144 12.887 2.97703 12.4725C2.97703 12.495 2.97703 12.5175 2.97703 12.54C2.97752 15.0939 4.7775 17.2938 7.28078 17.8C6.49086 18.0149 5.66229 18.0465 4.85828 17.8925C5.56228 20.0766 7.57522 21.5728 9.86953 21.6175C7.96932 23.1089 5.62263 23.9177 3.20703 23.9137C2.77887 23.9144 2.35104 23.8897 1.92578 23.84C4.37877 25.4163 7.23374 26.2529 10.1495 26.25C14.2061 26.2778 18.1046 24.6786 20.9729 21.81C23.8413 18.9414 25.4402 15.0428 25.412 10.9862C25.412 10.7537 25.4066 10.5225 25.3958 10.2925C26.4463 9.53324 27.353 8.59267 28.0733 7.51499C27.0945 7.94881 26.0564 8.23364 24.9933 8.35999Z" fill="#434343"/>
</svg>
