<svg width="33" height="32" viewBox="0 0 33 32" fill="none" xmlns="http://www.w3.org/2000/svg">
<g clip-path="url(#clip0_309_866)">
<path fill-rule="evenodd" clip-rule="evenodd" d="M16.3492 0.666748C12.5508 0.668719 8.87701 2.01403 5.98466 4.46211C3.09231 6.9102 1.17004 10.3014 0.561562 14.0294C-0.046916 17.7574 0.698072 21.579 2.66333 24.811C4.62859 28.0429 7.68596 30.4744 11.2887 31.6707C12.0836 31.8182 12.383 31.3256 12.383 30.9067C12.383 30.4879 12.3671 29.2734 12.3618 27.9457C7.9107 28.9072 6.97015 26.0674 6.97015 26.0674C6.2442 24.2233 5.19502 23.7386 5.19502 23.7386C3.74312 22.7533 5.30365 22.7718 5.30365 22.7718C6.91187 22.8851 7.75704 24.413 7.75704 24.413C9.18244 26.8445 11.5007 26.1412 12.4121 25.7302C12.5552 24.7002 12.9711 23.9994 13.4295 23.6016C9.87394 23.2012 6.13822 21.8366 6.13822 15.7406C6.11618 14.1597 6.7062 12.6308 7.78618 11.4703C7.62192 11.0699 7.07347 9.45239 7.94249 7.25532C7.94249 7.25532 9.28577 6.82855 12.3432 8.886C14.9657 8.17291 17.7327 8.17291 20.3551 8.886C23.41 6.82855 24.7506 7.25532 24.7506 7.25532C25.6222 9.44712 25.0738 11.0646 24.9095 11.4703C25.9929 12.631 26.5842 14.1625 26.5601 15.7459C26.5601 21.855 22.8165 23.2012 19.2556 23.5937C19.8279 24.089 20.3393 25.0558 20.3393 26.5416C20.3393 28.6702 20.3207 30.3825 20.3207 30.9067C20.3207 31.3309 20.6095 31.8261 21.4202 31.6707C25.0234 30.4743 28.0811 28.0424 30.0463 24.8099C32.0115 21.5774 32.7561 17.7551 32.147 14.0268C31.5378 10.2985 29.6146 6.90722 26.7213 4.45956C23.828 2.01189 20.1533 0.66747 16.3545 0.666748H16.3492Z" fill="white"/>
<path d="M11.0527 26.6337C11.0527 26.7628 10.9043 26.8735 10.7135 26.8761C10.5228 26.8787 10.3665 26.7734 10.3665 26.6443C10.3665 26.5152 10.5148 26.4045 10.7056 26.4019C10.8963 26.3993 11.0527 26.502 11.0527 26.6337Z" fill="white"/>
<path d="M12.2714 26.4309C12.2952 26.56 12.1627 26.6943 11.972 26.7259C11.7812 26.7576 11.6143 26.6812 11.5905 26.5547C11.5666 26.4283 11.7044 26.2913 11.8898 26.257C12.0753 26.2228 12.2475 26.3018 12.2714 26.4309Z" fill="white"/>
<path d="M9.74382 26.544C9.70407 26.6678 9.52391 26.7232 9.34375 26.6705C9.16359 26.6178 9.04436 26.4703 9.0788 26.3438C9.11325 26.2174 9.29606 26.1594 9.47887 26.2174C9.66168 26.2753 9.77826 26.4149 9.74382 26.544Z" fill="white"/>
<path d="M8.54362 26.0277C8.45618 26.1252 8.27868 26.0989 8.13296 25.9672C7.98724 25.8354 7.95278 25.6563 8.04022 25.5615C8.12765 25.4666 8.30516 25.493 8.45618 25.6221C8.6072 25.7511 8.63635 25.9329 8.54362 26.0277V26.0277Z" fill="white"/>
<path d="M7.68791 25.1427C7.58988 25.2112 7.42296 25.1427 7.33023 25.0057C7.30458 24.9811 7.2842 24.9517 7.27026 24.9191C7.25633 24.8865 7.24915 24.8515 7.24915 24.816C7.24915 24.7806 7.25633 24.7456 7.27026 24.713C7.2842 24.6804 7.30458 24.6509 7.33023 24.6264C7.42826 24.5605 7.59518 24.6264 7.68791 24.7607C7.78064 24.8951 7.78329 25.0742 7.68791 25.1427V25.1427Z" fill="white"/>
<path d="M7.05722 24.2286C7.00235 24.2561 6.93958 24.2638 6.87965 24.2503C6.81972 24.2368 6.76636 24.2031 6.72869 24.1548C6.62537 24.0442 6.60416 23.8914 6.68364 23.8229C6.76313 23.7544 6.90621 23.786 7.00954 23.8967C7.11286 24.0073 7.13671 24.1601 7.05722 24.2286Z" fill="white"/>
<path d="M6.40808 23.5093C6.37364 23.5884 6.24647 23.6121 6.14314 23.5568C6.03981 23.5014 5.96298 23.3987 6.00008 23.317C6.03717 23.2354 6.16169 23.2143 6.26502 23.2696C6.36835 23.3249 6.44783 23.4303 6.40808 23.5093Z" fill="white"/>
</g>
<defs>
<clipPath id="clip0_309_866">
<rect width="32" height="32" fill="white" transform="translate(0.348877)"/>
</clipPath>
</defs>
</svg>
