<svg width="33" height="32" viewBox="0 0 33 32" fill="none" xmlns="http://www.w3.org/2000/svg">
<g clip-path="url(#clip0_309_867)">
<path d="M29.9801 0H2.71138C1.40513 0 0.348877 1.03125 0.348877 2.30625V29.6875C0.348877 30.9625 1.40513 32 2.71138 32H29.9801C31.2864 32 32.3489 30.9625 32.3489 29.6938V2.30625C32.3489 1.03125 31.2864 0 29.9801 0ZM9.84263 27.2687H5.09263V11.9937H9.84263V27.2687ZM7.46763 9.9125C5.94263 9.9125 4.71138 8.68125 4.71138 7.1625C4.71138 5.64375 5.94263 4.4125 7.46763 4.4125C8.98638 4.4125 10.2176 5.64375 10.2176 7.1625C10.2176 8.675 8.98638 9.9125 7.46763 9.9125ZM27.6176 27.2687H22.8739V19.8438C22.8739 18.075 22.8426 15.7937 20.4051 15.7937C17.9364 15.7937 17.5614 17.725 17.5614 19.7188V27.2687H12.8239V11.9937H17.3739V14.0813H17.4364C18.0676 12.8813 19.6176 11.6125 21.9239 11.6125C26.7301 11.6125 27.6176 14.775 27.6176 18.8875V27.2687Z" fill="white"/>
</g>
<defs>
<clipPath id="clip0_309_867">
<rect width="32" height="32" fill="white" transform="translate(0.348877)"/>
</clipPath>
</defs>
</svg>
