<svg width="206" height="40" viewBox="0 0 206 40" fill="none" xmlns="http://www.w3.org/2000/svg">
<path d="M14.1711 30.0167L11.5199 27.6617L20.1449 19.995L11.5199 12.34L14.1711 9.98334L25.4418 20L14.173 30.0167H14.1711ZM33.4836 30H29.7336V10H33.4836V30Z" fill="#06B2A7"/>
<path d="M53.5664 26.5547C53.5664 26.0469 53.3555 25.6602 52.9336 25.3945C52.5195 25.1289 51.8281 24.8945 50.8594 24.6914C49.8906 24.4883 49.082 24.2305 48.4336 23.918C47.0117 23.2305 46.3008 22.2344 46.3008 20.9297C46.3008 19.8359 46.7617 18.9219 47.6836 18.1875C48.6055 17.4531 49.7773 17.0859 51.1992 17.0859C52.7148 17.0859 53.9375 17.4609 54.8672 18.2109C55.8047 18.9609 56.2734 19.9336 56.2734 21.1289H53.4258C53.4258 20.582 53.2227 20.1289 52.8164 19.7695C52.4102 19.4023 51.8711 19.2188 51.1992 19.2188C50.5742 19.2188 50.0625 19.3633 49.6641 19.6523C49.2734 19.9414 49.0781 20.3281 49.0781 20.8125C49.0781 21.25 49.2617 21.5898 49.6289 21.832C49.9961 22.0742 50.7383 22.3203 51.8555 22.5703C52.9727 22.8125 53.8477 23.1055 54.4805 23.4492C55.1211 23.7852 55.5938 24.1914 55.8984 24.668C56.2109 25.1445 56.3672 25.7227 56.3672 26.4023C56.3672 27.543 55.8945 28.4688 54.9492 29.1797C54.0039 29.8828 52.7656 30.2344 51.2344 30.2344C50.1953 30.2344 49.2695 30.0469 48.457 29.6719C47.6445 29.2969 47.0117 28.7812 46.5586 28.125C46.1055 27.4688 45.8789 26.7617 45.8789 26.0039H48.6445C48.6836 26.6758 48.9375 27.1953 49.4062 27.5625C49.875 27.9219 50.4961 28.1016 51.2695 28.1016C52.0195 28.1016 52.5898 27.9609 52.9805 27.6797C53.3711 27.3906 53.5664 27.0156 53.5664 26.5547ZM66.4336 30C66.3086 29.7578 66.1992 29.3633 66.1055 28.8164C65.1992 29.7617 64.0898 30.2344 62.7773 30.2344C61.5039 30.2344 60.4648 29.8711 59.6602 29.1445C58.8555 28.418 58.4531 27.5195 58.4531 26.4492C58.4531 25.0977 58.9531 24.0625 59.9531 23.3438C60.9609 22.6172 62.3984 22.2539 64.2656 22.2539H66.0117V21.4219C66.0117 20.7656 65.8281 20.2422 65.4609 19.8516C65.0938 19.4531 64.5352 19.2539 63.7852 19.2539C63.1367 19.2539 62.6055 19.418 62.1914 19.7461C61.7773 20.0664 61.5703 20.4766 61.5703 20.9766H58.7227C58.7227 20.2812 58.9531 19.6328 59.4141 19.0312C59.875 18.4219 60.5 17.9453 61.2891 17.6016C62.0859 17.2578 62.9727 17.0859 63.9492 17.0859C65.4336 17.0859 66.6172 17.4609 67.5 18.2109C68.3828 18.9531 68.8359 20 68.8594 21.3516V27.0703C68.8594 28.2109 69.0195 29.1211 69.3398 29.8008V30H66.4336ZM63.3047 27.9492C63.8672 27.9492 64.3945 27.8125 64.8867 27.5391C65.3867 27.2656 65.7617 26.8984 66.0117 26.4375V24.0469H64.4766C63.4219 24.0469 62.6289 24.2305 62.0977 24.5977C61.5664 24.9648 61.3008 25.4844 61.3008 26.1562C61.3008 26.7031 61.4805 27.1406 61.8398 27.4688C62.207 27.7891 62.6953 27.9492 63.3047 27.9492ZM74.4844 17.3203L74.5664 18.7852C75.5039 17.6523 76.7344 17.0859 78.2578 17.0859C80.8984 17.0859 82.2422 18.5977 82.2891 21.6211V30H79.4414V21.7852C79.4414 20.9805 79.2656 20.3867 78.9141 20.0039C78.5703 19.6133 78.0039 19.418 77.2148 19.418C76.0664 19.418 75.2109 19.9375 74.6484 20.9766V30H71.8008V17.3203H74.4844ZM88.7695 14.2383V17.3203H91.0078V19.4297H88.7695V26.5078C88.7695 26.9922 88.8633 27.3438 89.0508 27.5625C89.2461 27.7734 89.5898 27.8789 90.082 27.8789C90.4102 27.8789 90.7422 27.8398 91.0781 27.7617V29.9648C90.4297 30.1445 89.8047 30.2344 89.2031 30.2344C87.0156 30.2344 85.9219 29.0273 85.9219 26.6133V19.4297H83.8359V17.3203H85.9219V14.2383H88.7695ZM96 18.7031C96.9297 17.625 98.1055 17.0859 99.5273 17.0859C102.23 17.0859 103.602 18.6289 103.641 21.7148V30H100.793V21.8203C100.793 20.9453 100.602 20.3281 100.219 19.9688C99.8438 19.6016 99.2891 19.418 98.5547 19.418C97.4141 19.418 96.5625 19.9258 96 20.9414V30H93.1523V12H96V18.7031ZM105.996 23.543C105.996 22.3008 106.242 21.1836 106.734 20.1914C107.227 19.1914 107.918 18.4258 108.809 17.8945C109.699 17.3555 110.723 17.0859 111.879 17.0859C113.59 17.0859 114.977 17.6367 116.039 18.7383C117.109 19.8398 117.688 21.3008 117.773 23.1211L117.785 23.7891C117.785 25.0391 117.543 26.1562 117.059 27.1406C116.582 28.125 115.895 28.8867 114.996 29.4258C114.105 29.9648 113.074 30.2344 111.902 30.2344C110.113 30.2344 108.68 29.6406 107.602 28.4531C106.531 27.2578 105.996 25.668 105.996 23.6836V23.543ZM108.844 23.7891C108.844 25.0938 109.113 26.1172 109.652 26.8594C110.191 27.5938 110.941 27.9609 111.902 27.9609C112.863 27.9609 113.609 27.5859 114.141 26.8359C114.68 26.0859 114.949 24.9883 114.949 23.543C114.949 22.2617 114.672 21.2461 114.117 20.4961C113.57 19.7461 112.824 19.3711 111.879 19.3711C110.949 19.3711 110.211 19.7422 109.664 20.4844C109.117 21.2188 108.844 22.3203 108.844 23.7891ZM127.301 26.5547C127.301 26.0469 127.09 25.6602 126.668 25.3945C126.254 25.1289 125.562 24.8945 124.594 24.6914C123.625 24.4883 122.816 24.2305 122.168 23.918C120.746 23.2305 120.035 22.2344 120.035 20.9297C120.035 19.8359 120.496 18.9219 121.418 18.1875C122.34 17.4531 123.512 17.0859 124.934 17.0859C126.449 17.0859 127.672 17.4609 128.602 18.2109C129.539 18.9609 130.008 19.9336 130.008 21.1289H127.16C127.16 20.582 126.957 20.1289 126.551 19.7695C126.145 19.4023 125.605 19.2188 124.934 19.2188C124.309 19.2188 123.797 19.3633 123.398 19.6523C123.008 19.9414 122.812 20.3281 122.812 20.8125C122.812 21.25 122.996 21.5898 123.363 21.832C123.73 22.0742 124.473 22.3203 125.59 22.5703C126.707 22.8125 127.582 23.1055 128.215 23.4492C128.855 23.7852 129.328 24.1914 129.633 24.668C129.945 25.1445 130.102 25.7227 130.102 26.4023C130.102 27.543 129.629 28.4688 128.684 29.1797C127.738 29.8828 126.5 30.2344 124.969 30.2344C123.93 30.2344 123.004 30.0469 122.191 29.6719C121.379 29.2969 120.746 28.7812 120.293 28.125C119.84 27.4688 119.613 26.7617 119.613 26.0039H122.379C122.418 26.6758 122.672 27.1953 123.141 27.5625C123.609 27.9219 124.23 28.1016 125.004 28.1016C125.754 28.1016 126.324 27.9609 126.715 27.6797C127.105 27.3906 127.301 27.0156 127.301 26.5547ZM135.398 18.7031C136.328 17.625 137.504 17.0859 138.926 17.0859C141.629 17.0859 143 18.6289 143.039 21.7148V30H140.191V21.8203C140.191 20.9453 140 20.3281 139.617 19.9688C139.242 19.6016 138.688 19.418 137.953 19.418C136.812 19.418 135.961 19.9258 135.398 20.9414V30H132.551V12H135.398V18.7031ZM147.703 27C148.234 27 148.645 27.1523 148.934 27.457C149.223 27.7539 149.367 28.1289 149.367 28.582C149.367 29.0273 149.223 29.3984 148.934 29.6953C148.645 29.9844 148.234 30.1289 147.703 30.1289C147.195 30.1289 146.793 29.9844 146.496 29.6953C146.199 29.4062 146.051 29.0352 146.051 28.582C146.051 28.1289 146.195 27.7539 146.484 27.457C146.773 27.1523 147.18 27 147.703 27ZM159.27 19.9219C158.895 19.8594 158.508 19.8281 158.109 19.8281C156.805 19.8281 155.926 20.3281 155.473 21.3281V30H152.625V17.3203H155.344L155.414 18.7383C156.102 17.6367 157.055 17.0859 158.273 17.0859C158.68 17.0859 159.016 17.1406 159.281 17.25L159.27 19.9219ZM168.293 30C168.168 29.7578 168.059 29.3633 167.965 28.8164C167.059 29.7617 165.949 30.2344 164.637 30.2344C163.363 30.2344 162.324 29.8711 161.52 29.1445C160.715 28.418 160.312 27.5195 160.312 26.4492C160.312 25.0977 160.812 24.0625 161.812 23.3438C162.82 22.6172 164.258 22.2539 166.125 22.2539H167.871V21.4219C167.871 20.7656 167.688 20.2422 167.32 19.8516C166.953 19.4531 166.395 19.2539 165.645 19.2539C164.996 19.2539 164.465 19.418 164.051 19.7461C163.637 20.0664 163.43 20.4766 163.43 20.9766H160.582C160.582 20.2812 160.812 19.6328 161.273 19.0312C161.734 18.4219 162.359 17.9453 163.148 17.6016C163.945 17.2578 164.832 17.0859 165.809 17.0859C167.293 17.0859 168.477 17.4609 169.359 18.2109C170.242 18.9531 170.695 20 170.719 21.3516V27.0703C170.719 28.2109 170.879 29.1211 171.199 29.8008V30H168.293ZM165.164 27.9492C165.727 27.9492 166.254 27.8125 166.746 27.5391C167.246 27.2656 167.621 26.8984 167.871 26.4375V24.0469H166.336C165.281 24.0469 164.488 24.2305 163.957 24.5977C163.426 24.9648 163.16 25.4844 163.16 26.1562C163.16 26.7031 163.34 27.1406 163.699 27.4688C164.066 27.7891 164.555 27.9492 165.164 27.9492ZM176.672 17.3203V31.125C176.672 32.4219 176.348 33.4102 175.699 34.0898C175.059 34.7773 174.117 35.1211 172.875 35.1211C172.352 35.1211 171.848 35.0547 171.363 34.9219V32.6719C171.66 32.7422 171.996 32.7773 172.371 32.7773C173.316 32.7773 173.801 32.2617 173.824 31.2305V17.3203H176.672ZM173.578 14.0273C173.578 13.5898 173.715 13.2266 173.988 12.9375C174.27 12.6484 174.668 12.5039 175.184 12.5039C175.699 12.5039 176.098 12.6484 176.379 12.9375C176.66 13.2266 176.801 13.5898 176.801 14.0273C176.801 14.457 176.66 14.8164 176.379 15.1055C176.098 15.3867 175.699 15.5273 175.184 15.5273C174.668 15.5273 174.27 15.3867 173.988 15.1055C173.715 14.8164 173.578 14.457 173.578 14.0273ZM187.406 28.7578C186.57 29.7422 185.383 30.2344 183.844 30.2344C182.469 30.2344 181.426 29.832 180.715 29.0273C180.012 28.2227 179.66 27.0586 179.66 25.5352V17.3203H182.508V25.5C182.508 27.1094 183.176 27.9141 184.512 27.9141C185.895 27.9141 186.828 27.418 187.312 26.4258V17.3203H190.16V30H187.477L187.406 28.7578Z" fill="#E7ECEF"/>
</svg>
