<svg width="359" height="64" viewBox="0 0 359 64" fill="none" xmlns="http://www.w3.org/2000/svg">
<path d="M13.272 43.294C11.116 43.294 9.184 42.944 7.476 42.244C5.768 41.544 4.396 40.508 3.36 39.136C2.352 37.764 1.82 36.112 1.764 34.18H9.408C9.52 35.272 9.898 36.112 10.542 36.7C11.186 37.26 12.026 37.54 13.062 37.54C14.126 37.54 14.966 37.302 15.582 36.826C16.198 36.322 16.506 35.636 16.506 34.768C16.506 34.04 16.254 33.438 15.75 32.962C15.274 32.486 14.672 32.094 13.944 31.786C13.244 31.478 12.236 31.128 10.92 30.736C9.016 30.148 7.462 29.56 6.258 28.972C5.054 28.384 4.018 27.516 3.15 26.368C2.282 25.22 1.848 23.722 1.848 21.874C1.848 19.13 2.842 16.988 4.83 15.448C6.818 13.88 9.408 13.096 12.6 13.096C15.848 13.096 18.466 13.88 20.454 15.448C22.442 16.988 23.506 19.144 23.646 21.916H15.876C15.82 20.964 15.47 20.222 14.826 19.69C14.182 19.13 13.356 18.85 12.348 18.85C11.48 18.85 10.78 19.088 10.248 19.564C9.716 20.012 9.45 20.67 9.45 21.538C9.45 22.49 9.898 23.232 10.794 23.764C11.69 24.296 13.09 24.87 14.994 25.486C16.898 26.13 18.438 26.746 19.614 27.334C20.818 27.922 21.854 28.776 22.722 29.896C23.59 31.016 24.024 32.458 24.024 34.222C24.024 35.902 23.59 37.428 22.722 38.8C21.882 40.172 20.65 41.264 19.026 42.076C17.402 42.888 15.484 43.294 13.272 43.294ZM27.0158 31.24C27.0158 28.832 27.4638 26.718 28.3598 24.898C29.2838 23.078 30.5298 21.678 32.0978 20.698C33.6658 19.718 35.4158 19.228 37.3478 19.228C38.9998 19.228 40.4418 19.564 41.6738 20.236C42.9338 20.908 43.8998 21.79 44.5718 22.882V19.564H51.7538V43H44.5718V39.682C43.8718 40.774 42.8918 41.656 41.6318 42.328C40.3998 43 38.9578 43.336 37.3058 43.336C35.4018 43.336 33.6658 42.846 32.0978 41.866C30.5298 40.858 29.2838 39.444 28.3598 37.624C27.4638 35.776 27.0158 33.648 27.0158 31.24ZM44.5718 31.282C44.5718 29.49 44.0678 28.076 43.0598 27.04C42.0798 26.004 40.8758 25.486 39.4478 25.486C38.0198 25.486 36.8018 26.004 35.7938 27.04C34.8138 28.048 34.3238 29.448 34.3238 31.24C34.3238 33.032 34.8138 34.46 35.7938 35.524C36.8018 36.56 38.0198 37.078 39.4478 37.078C40.8758 37.078 42.0798 36.56 43.0598 35.524C44.0678 34.488 44.5718 33.074 44.5718 31.282ZM71.2297 19.312C73.9737 19.312 76.1577 20.208 77.7817 22C79.4337 23.764 80.2597 26.2 80.2597 29.308V43H73.1197V30.274C73.1197 28.706 72.7137 27.488 71.9017 26.62C71.0897 25.752 69.9977 25.318 68.6257 25.318C67.2537 25.318 66.1617 25.752 65.3497 26.62C64.5377 27.488 64.1317 28.706 64.1317 30.274V43H56.9497V19.564H64.1317V22.672C64.8597 21.636 65.8397 20.824 67.0717 20.236C68.3037 19.62 69.6897 19.312 71.2297 19.312ZM98.3125 36.91V43H94.6585C92.0545 43 90.0245 42.37 88.5685 41.11C87.1125 39.822 86.3845 37.736 86.3845 34.852V25.528H83.5285V19.564H86.3845V13.852H93.5665V19.564H98.2705V25.528H93.5665V34.936C93.5665 35.636 93.7345 36.14 94.0705 36.448C94.4065 36.756 94.9665 36.91 95.7505 36.91H98.3125ZM116.719 19.312C119.407 19.312 121.563 20.208 123.187 22C124.811 23.764 125.623 26.2 125.623 29.308V43H118.483V30.274C118.483 28.706 118.077 27.488 117.265 26.62C116.453 25.752 115.361 25.318 113.989 25.318C112.617 25.318 111.525 25.752 110.713 26.62C109.901 27.488 109.495 28.706 109.495 30.274V43H102.313V11.92H109.495V22.714C110.223 21.678 111.217 20.852 112.477 20.236C113.737 19.62 115.151 19.312 116.719 19.312ZM141.282 43.336C138.986 43.336 136.914 42.846 135.066 41.866C133.246 40.886 131.804 39.486 130.74 37.666C129.704 35.846 129.186 33.718 129.186 31.282C129.186 28.874 129.718 26.76 130.782 24.94C131.846 23.092 133.302 21.678 135.15 20.698C136.998 19.718 139.07 19.228 141.366 19.228C143.662 19.228 145.734 19.718 147.582 20.698C149.43 21.678 150.886 23.092 151.95 24.94C153.014 26.76 153.546 28.874 153.546 31.282C153.546 33.69 153 35.818 151.908 37.666C150.844 39.486 149.374 40.886 147.498 41.866C145.65 42.846 143.578 43.336 141.282 43.336ZM141.282 37.12C142.654 37.12 143.816 36.616 144.768 35.608C145.748 34.6 146.238 33.158 146.238 31.282C146.238 29.406 145.762 27.964 144.81 26.956C143.886 25.948 142.738 25.444 141.366 25.444C139.966 25.444 138.804 25.948 137.88 26.956C136.956 27.936 136.494 29.378 136.494 31.282C136.494 33.158 136.942 34.6 137.838 35.608C138.762 36.616 139.91 37.12 141.282 37.12ZM166.89 43.336C164.846 43.336 163.026 42.986 161.43 42.286C159.834 41.586 158.574 40.634 157.65 39.43C156.726 38.198 156.208 36.826 156.096 35.314H163.194C163.278 36.126 163.656 36.784 164.328 37.288C165 37.792 165.826 38.044 166.806 38.044C167.702 38.044 168.388 37.876 168.864 37.54C169.368 37.176 169.62 36.714 169.62 36.154C169.62 35.482 169.27 34.992 168.57 34.684C167.87 34.348 166.736 33.984 165.168 33.592C163.488 33.2 162.088 32.794 160.968 32.374C159.848 31.926 158.882 31.24 158.07 30.316C157.258 29.364 156.852 28.09 156.852 26.494C156.852 25.15 157.216 23.932 157.944 22.84C158.7 21.72 159.792 20.838 161.22 20.194C162.676 19.55 164.398 19.228 166.386 19.228C169.326 19.228 171.636 19.956 173.316 21.412C175.024 22.868 176.004 24.8 176.256 27.208H169.62C169.508 26.396 169.144 25.752 168.528 25.276C167.94 24.8 167.156 24.562 166.176 24.562C165.336 24.562 164.692 24.73 164.244 25.066C163.796 25.374 163.572 25.808 163.572 26.368C163.572 27.04 163.922 27.544 164.622 27.88C165.35 28.216 166.47 28.552 167.982 28.888C169.718 29.336 171.132 29.784 172.224 30.232C173.316 30.652 174.268 31.352 175.08 32.332C175.92 33.284 176.354 34.572 176.382 36.196C176.382 37.568 175.99 38.8 175.206 39.892C174.45 40.956 173.344 41.796 171.888 42.412C170.46 43.028 168.794 43.336 166.89 43.336ZM195.182 19.312C197.87 19.312 200.026 20.208 201.65 22C203.274 23.764 204.086 26.2 204.086 29.308V43H196.946V30.274C196.946 28.706 196.54 27.488 195.728 26.62C194.916 25.752 193.824 25.318 192.452 25.318C191.08 25.318 189.988 25.752 189.176 26.62C188.364 27.488 187.958 28.706 187.958 30.274V43H180.776V11.92H187.958V22.714C188.686 21.678 189.68 20.852 190.94 20.236C192.2 19.62 193.614 19.312 195.182 19.312ZM224.113 43L217.981 31.87H216.259V43H209.077V13.516H221.131C223.455 13.516 225.429 13.922 227.053 14.734C228.705 15.546 229.937 16.666 230.749 18.094C231.561 19.494 231.967 21.062 231.967 22.798C231.967 24.758 231.407 26.508 230.287 28.048C229.195 29.588 227.571 30.68 225.415 31.324L232.219 43H224.113ZM216.259 26.788H220.711C222.027 26.788 223.007 26.466 223.651 25.822C224.323 25.178 224.659 24.268 224.659 23.092C224.659 21.972 224.323 21.09 223.651 20.446C223.007 19.802 222.027 19.48 220.711 19.48H216.259V26.788ZM235.047 31.24C235.047 28.832 235.495 26.718 236.391 24.898C237.315 23.078 238.561 21.678 240.129 20.698C241.697 19.718 243.447 19.228 245.379 19.228C247.031 19.228 248.473 19.564 249.705 20.236C250.965 20.908 251.931 21.79 252.603 22.882V19.564H259.785V43H252.603V39.682C251.903 40.774 250.923 41.656 249.663 42.328C248.431 43 246.989 43.336 245.337 43.336C243.433 43.336 241.697 42.846 240.129 41.866C238.561 40.858 237.315 39.444 236.391 37.624C235.495 35.776 235.047 33.648 235.047 31.24ZM252.603 31.282C252.603 29.49 252.099 28.076 251.091 27.04C250.111 26.004 248.907 25.486 247.479 25.486C246.051 25.486 244.833 26.004 243.825 27.04C242.845 28.048 242.355 29.448 242.355 31.24C242.355 33.032 242.845 34.46 243.825 35.524C244.833 36.56 246.051 37.078 247.479 37.078C248.907 37.078 250.111 36.56 251.091 35.524C252.099 34.488 252.603 33.074 252.603 31.282ZM268.551 17.128C267.291 17.128 266.255 16.764 265.443 16.036C264.659 15.28 264.267 14.356 264.267 13.264C264.267 12.144 264.659 11.22 265.443 10.492C266.255 9.736 267.291 9.358 268.551 9.358C269.783 9.358 270.791 9.736 271.575 10.492C272.387 11.22 272.793 12.144 272.793 13.264C272.793 14.356 272.387 15.28 271.575 16.036C270.791 16.764 269.783 17.128 268.551 17.128ZM272.163 46.024C272.163 48.908 271.435 50.98 269.979 52.24C268.523 53.528 266.493 54.172 263.889 54.172H261.075V48.082H262.797C263.581 48.082 264.141 47.928 264.477 47.62C264.813 47.312 264.981 46.808 264.981 46.108V19.564H272.163V46.024ZM300.469 19.564V43H293.287V39.808C292.559 40.844 291.565 41.684 290.305 42.328C289.073 42.944 287.701 43.252 286.189 43.252C284.397 43.252 282.815 42.86 281.443 42.076C280.071 41.264 279.007 40.102 278.251 38.59C277.495 37.078 277.117 35.3 277.117 33.256V19.564H284.257V32.29C284.257 33.858 284.663 35.076 285.475 35.944C286.287 36.812 287.379 37.246 288.751 37.246C290.151 37.246 291.257 36.812 292.069 35.944C292.881 35.076 293.287 33.858 293.287 32.29V19.564H300.469Z" fill="#38B2AC"/>
<path d="M306.167 43.168C305.559 43.168 305.055 42.984 304.655 42.616C304.271 42.232 304.079 41.76 304.079 41.2C304.079 40.64 304.271 40.176 304.655 39.808C305.055 39.424 305.559 39.232 306.167 39.232C306.759 39.232 307.247 39.424 307.631 39.808C308.015 40.176 308.207 40.64 308.207 41.2C308.207 41.76 308.015 42.232 307.631 42.616C307.247 42.984 306.759 43.168 306.167 43.168ZM310.05 36.304C310.05 34.96 310.314 33.768 310.842 32.728C311.386 31.688 312.122 30.888 313.05 30.328C313.978 29.768 315.01 29.488 316.146 29.488C317.01 29.488 317.834 29.68 318.618 30.064C319.402 30.432 320.026 30.928 320.49 31.552V25.24H323.898V43H320.49V41.032C320.074 41.688 319.49 42.216 318.738 42.616C317.986 43.016 317.114 43.216 316.122 43.216C315.002 43.216 313.978 42.928 313.05 42.352C312.122 41.776 311.386 40.968 310.842 39.928C310.314 38.872 310.05 37.664 310.05 36.304ZM320.514 36.352C320.514 35.536 320.354 34.84 320.034 34.264C319.714 33.672 319.282 33.224 318.738 32.92C318.194 32.6 317.61 32.44 316.986 32.44C316.362 32.44 315.786 32.592 315.258 32.896C314.73 33.2 314.298 33.648 313.962 34.24C313.642 34.816 313.482 35.504 313.482 36.304C313.482 37.104 313.642 37.808 313.962 38.416C314.298 39.008 314.73 39.464 315.258 39.784C315.802 40.104 316.378 40.264 316.986 40.264C317.61 40.264 318.194 40.112 318.738 39.808C319.282 39.488 319.714 39.04 320.034 38.464C320.354 37.872 320.514 37.168 320.514 36.352ZM339.539 36.064C339.539 36.544 339.507 36.976 339.443 37.36H329.723C329.803 38.32 330.139 39.072 330.731 39.616C331.323 40.16 332.051 40.432 332.915 40.432C334.163 40.432 335.051 39.896 335.579 38.824H339.203C338.819 40.104 338.083 41.16 336.995 41.992C335.907 42.808 334.571 43.216 332.987 43.216C331.707 43.216 330.555 42.936 329.531 42.376C328.523 41.8 327.731 40.992 327.155 39.952C326.595 38.912 326.315 37.712 326.315 36.352C326.315 34.976 326.595 33.768 327.155 32.728C327.715 31.688 328.499 30.888 329.507 30.328C330.515 29.768 331.675 29.488 332.987 29.488C334.251 29.488 335.379 29.76 336.371 30.304C337.379 30.848 338.155 31.624 338.699 32.632C339.259 33.624 339.539 34.768 339.539 36.064ZM336.059 35.104C336.043 34.24 335.731 33.552 335.123 33.04C334.515 32.512 333.771 32.248 332.891 32.248C332.059 32.248 331.355 32.504 330.779 33.016C330.219 33.512 329.875 34.208 329.747 35.104H336.059ZM347.536 39.904L350.896 29.704H354.472L349.552 43H345.472L340.576 29.704H344.176L347.536 39.904Z" fill="#FC8181"/>
<rect x="39.1021" y="56" width="50.131" height="7.46667" rx="3.73334" fill="#FC8181"/>
<rect x="19.0498" y="56" width="15.0393" height="7.46667" rx="3.73334" fill="#FC8181"/>
<rect y="56" width="15.0393" height="7.46667" rx="3.73334" fill="#FC8181"/>
</svg>
