<svg width="294" height="65" viewBox="0 0 294 65" fill="none" xmlns="http://www.w3.org/2000/svg">
<path d="M11.568 46.576C9.552 46.576 7.632 46.288 5.808 45.712C4.016 45.136 2.544 44.24 1.392 43.024L4.32 38.08L4.56 37.696L5.04 37.984C5.104 38.208 5.184 38.448 5.28 38.704C5.376 38.928 5.632 39.216 6.048 39.568C6.816 40.112 7.664 40.576 8.592 40.96C9.552 41.312 10.56 41.504 11.616 41.536C12.32 41.536 12.96 41.472 13.536 41.344C14.112 41.216 14.608 41.024 15.024 40.768C15.44 40.48 15.76 40.112 15.984 39.664C16.208 39.216 16.32 38.688 16.32 38.08C16.32 37.76 16.272 37.44 16.176 37.12C16.112 36.768 15.968 36.432 15.744 36.112C15.552 35.792 15.232 35.472 14.784 35.152C14.368 34.8 13.84 34.432 13.2 34.048C12.56 33.664 11.76 33.264 10.8 32.848C8.72 31.888 7.072 30.96 5.856 30.064C4.672 29.136 3.824 28.144 3.312 27.088C2.8 26 2.544 24.752 2.544 23.344C2.544 21.872 2.96 20.56 3.792 19.408C4.656 18.224 5.824 17.296 7.296 16.624C8.768 15.92 10.416 15.568 12.24 15.568C13.552 15.568 14.752 15.712 15.84 16C16.96 16.288 18 16.72 18.96 17.296C19.92 17.872 20.8 18.592 21.6 19.456L17.952 23.488L17.664 23.824L17.28 23.488C17.248 23.232 17.2 22.992 17.136 22.768C17.072 22.512 16.864 22.192 16.512 21.808C15.936 21.296 15.328 20.96 14.688 20.8C14.048 20.608 13.312 20.512 12.48 20.512C11.872 20.512 11.328 20.592 10.848 20.752C10.368 20.88 9.952 21.072 9.6 21.328C9.248 21.552 8.976 21.824 8.784 22.144C8.624 22.464 8.544 22.8 8.544 23.152C8.544 23.472 8.576 23.776 8.64 24.064C8.704 24.352 8.848 24.64 9.072 24.928C9.296 25.216 9.616 25.52 10.032 25.84C10.48 26.128 11.04 26.464 11.712 26.848C12.416 27.232 13.296 27.664 14.352 28.144C15.856 28.88 17.12 29.6 18.144 30.304C19.2 30.976 20.032 31.68 20.64 32.416C21.28 33.12 21.728 33.92 21.984 34.816C22.24 35.68 22.368 36.656 22.368 37.744C22.368 39.248 21.984 40.672 21.216 42.016C20.48 43.328 19.312 44.416 17.712 45.28C16.112 46.144 14.064 46.576 11.568 46.576ZM30.948 46.432C29.124 46.432 27.696 46 26.664 45.136C25.632 44.248 25.116 43.096 25.116 41.68C25.116 40.768 25.308 39.94 25.692 39.196C26.1 38.428 26.7 37.756 27.492 37.18C28.308 36.604 29.328 36.16 30.552 35.848C31.776 35.512 33.204 35.344 34.836 35.344C34.98 35.344 35.172 35.356 35.412 35.38C35.652 35.38 35.916 35.38 36.204 35.38C36.492 35.38 36.756 35.392 36.996 35.416L37.104 38.512C36.912 38.488 36.66 38.476 36.348 38.476C36.06 38.476 35.76 38.476 35.448 38.476C35.136 38.476 34.884 38.476 34.692 38.476C33.684 38.476 32.856 38.548 32.208 38.692C31.584 38.812 31.08 38.992 30.696 39.232C30.336 39.472 30.084 39.748 29.94 40.06C29.796 40.372 29.724 40.708 29.724 41.068C29.724 41.38 29.772 41.668 29.868 41.932C29.988 42.172 30.144 42.364 30.336 42.508C30.528 42.628 30.756 42.724 31.02 42.796C31.308 42.868 31.608 42.904 31.92 42.904C32.568 42.904 33.132 42.796 33.612 42.58C34.092 42.364 34.488 42.028 34.8 41.572C35.136 41.092 35.376 40.492 35.52 39.772C35.688 39.028 35.772 38.152 35.772 37.144C35.772 35.824 35.64 34.816 35.376 34.12C35.112 33.424 34.74 32.944 34.26 32.68C33.78 32.416 33.18 32.284 32.46 32.284C31.716 32.284 31.008 32.404 30.336 32.644C29.688 32.86 29.028 33.316 28.356 34.012L25.8 31.312C26.808 30.376 27.9 29.716 29.076 29.332C30.276 28.948 31.464 28.756 32.64 28.756C33.672 28.756 34.644 28.876 35.556 29.116C36.492 29.356 37.308 29.752 38.004 30.304C38.724 30.832 39.288 31.576 39.696 32.536C40.104 33.472 40.308 34.648 40.308 36.064V46H35.628V44.416C35.316 44.776 34.992 45.088 34.656 45.352C34.344 45.616 33.996 45.832 33.612 46C33.228 46.144 32.82 46.252 32.388 46.324C31.956 46.396 31.476 46.432 30.948 46.432ZM43.764 46V29.152H48.372V31.276C48.78 30.772 49.2 30.34 49.632 29.98C50.064 29.596 50.556 29.296 51.108 29.08C51.66 28.864 52.272 28.756 52.944 28.756C53.928 28.756 54.852 28.996 55.716 29.476C56.58 29.956 57.276 30.724 57.804 31.78C58.332 32.812 58.596 34.168 58.596 35.848V46H53.988V35.884C53.988 35.044 53.904 34.348 53.736 33.796C53.568 33.244 53.316 32.836 52.98 32.572C52.644 32.308 52.224 32.176 51.72 32.176C51.288 32.176 50.868 32.26 50.46 32.428C50.076 32.596 49.728 32.848 49.416 33.184C49.104 33.496 48.852 33.88 48.66 34.336C48.468 34.768 48.372 35.272 48.372 35.848V46H43.764ZM70.764 46.396C69.852 46.396 69.024 46.252 68.28 45.964C67.56 45.676 66.948 45.196 66.444 44.524C65.964 43.828 65.604 42.904 65.364 41.752C65.124 40.6 65.04 39.16 65.112 37.432L65.616 25.264L70.296 24.652L70.62 24.616L70.656 25.012C70.56 25.18 70.464 25.348 70.368 25.516C70.272 25.684 70.212 25.972 70.188 26.38L69.756 31.6L69.972 31.744L69.684 37.252C69.612 38.716 69.66 39.856 69.828 40.672C70.02 41.464 70.296 42.016 70.656 42.328C71.016 42.616 71.424 42.76 71.88 42.76C72.624 42.76 73.296 42.604 73.896 42.292C74.52 41.98 75.084 41.62 75.588 41.212L76.452 44.488C75.636 45.088 74.76 45.556 73.824 45.892C72.888 46.228 71.868 46.396 70.764 46.396ZM61.98 29.152H75.228L75.156 32.752H61.908L61.98 29.152ZM79.764 21.772H84.336H84.696V22.132C84.552 22.276 84.456 22.432 84.408 22.6C84.384 22.768 84.372 23.056 84.372 23.464V31.096C84.78 30.544 85.236 30.1 85.74 29.764C86.268 29.428 86.82 29.176 87.396 29.008C87.996 28.84 88.572 28.756 89.124 28.756C90.252 28.756 91.212 28.996 92.004 29.476C92.82 29.956 93.456 30.724 93.912 31.78C94.368 32.812 94.596 34.168 94.596 35.848V46H89.988V35.884C89.988 34.972 89.904 34.24 89.736 33.688C89.568 33.136 89.328 32.752 89.016 32.536C88.704 32.296 88.32 32.176 87.864 32.176C87.456 32.176 87.072 32.236 86.712 32.356C86.376 32.476 86.064 32.656 85.776 32.896C85.488 33.112 85.236 33.4 85.02 33.76C84.804 34.096 84.636 34.48 84.516 34.912C84.42 35.344 84.372 35.812 84.372 36.316V46H79.764V21.772ZM104.964 46.396C103.452 46.396 102.084 46.036 100.86 45.316C99.636 44.572 98.664 43.54 97.944 42.22C97.224 40.876 96.864 39.328 96.864 37.576C96.864 35.92 97.224 34.432 97.944 33.112C98.664 31.768 99.636 30.712 100.86 29.944C102.084 29.152 103.452 28.756 104.964 28.756C106.476 28.756 107.844 29.152 109.068 29.944C110.316 30.712 111.3 31.768 112.02 33.112C112.764 34.432 113.136 35.92 113.136 37.576C113.136 39.304 112.764 40.84 112.02 42.184C111.3 43.504 110.316 44.536 109.068 45.28C107.844 46.024 106.476 46.396 104.964 46.396ZM104.964 42.76C105.684 42.76 106.308 42.544 106.836 42.112C107.388 41.68 107.82 41.08 108.132 40.312C108.444 39.52 108.6 38.608 108.6 37.576C108.6 36.472 108.444 35.536 108.132 34.768C107.82 34 107.388 33.412 106.836 33.004C106.308 32.596 105.684 32.392 104.964 32.392C104.292 32.392 103.68 32.596 103.128 33.004C102.6 33.412 102.18 34 101.868 34.768C101.556 35.536 101.4 36.472 101.4 37.576C101.4 38.608 101.556 39.52 101.868 40.312C102.18 41.08 102.6 41.68 103.128 42.112C103.68 42.544 104.292 42.76 104.964 42.76ZM123.432 46.432C122.376 46.432 121.368 46.336 120.408 46.144C119.448 45.952 118.548 45.664 117.708 45.28C116.892 44.896 116.148 44.38 115.476 43.732L117.384 40.132L117.528 39.844L117.852 40.024C117.9 40.192 117.96 40.384 118.032 40.6C118.128 40.792 118.32 41.02 118.608 41.284C119.232 41.788 119.94 42.184 120.732 42.472C121.524 42.736 122.436 42.868 123.468 42.868C124.068 42.868 124.572 42.808 124.98 42.688C125.412 42.544 125.748 42.352 125.988 42.112C126.228 41.848 126.348 41.572 126.348 41.284C126.348 41.02 126.264 40.792 126.096 40.6C125.952 40.408 125.724 40.24 125.412 40.096C125.1 39.928 124.704 39.772 124.224 39.628C123.744 39.46 123.168 39.28 122.496 39.088C121.272 38.776 120.216 38.392 119.328 37.936C118.44 37.456 117.756 36.88 117.276 36.208C116.796 35.536 116.556 34.732 116.556 33.796C116.556 32.86 116.832 32.02 117.384 31.276C117.96 30.508 118.752 29.896 119.76 29.44C120.792 28.984 121.98 28.756 123.324 28.756C123.996 28.756 124.644 28.816 125.268 28.936C125.916 29.032 126.516 29.188 127.068 29.404C127.644 29.596 128.184 29.86 128.688 30.196C129.192 30.508 129.672 30.88 130.128 31.312L127.968 34.408L127.752 34.696L127.428 34.444C127.404 34.252 127.344 34.072 127.248 33.904C127.176 33.736 127.008 33.52 126.744 33.256C126.264 32.92 125.736 32.68 125.16 32.536C124.584 32.392 123.996 32.32 123.396 32.32C122.652 32.32 121.992 32.44 121.416 32.68C120.864 32.92 120.588 33.28 120.588 33.76C120.588 34.048 120.72 34.312 120.984 34.552C121.272 34.768 121.704 34.972 122.28 35.164C122.88 35.356 123.636 35.572 124.548 35.812C125.916 36.124 127.02 36.52 127.86 37C128.724 37.48 129.36 38.056 129.768 38.728C130.176 39.4 130.38 40.18 130.38 41.068C130.38 42.028 130.104 42.916 129.552 43.732C129.024 44.548 128.244 45.208 127.212 45.712C126.18 46.192 124.92 46.432 123.432 46.432ZM133.764 21.772H138.336H138.696V22.132C138.552 22.276 138.456 22.432 138.408 22.6C138.384 22.768 138.372 23.056 138.372 23.464V31.096C138.78 30.544 139.236 30.1 139.74 29.764C140.268 29.428 140.82 29.176 141.396 29.008C141.996 28.84 142.572 28.756 143.124 28.756C144.252 28.756 145.212 28.996 146.004 29.476C146.82 29.956 147.456 30.724 147.912 31.78C148.368 32.812 148.596 34.168 148.596 35.848V46H143.988V35.884C143.988 34.972 143.904 34.24 143.736 33.688C143.568 33.136 143.328 32.752 143.016 32.536C142.704 32.296 142.32 32.176 141.864 32.176C141.456 32.176 141.072 32.236 140.712 32.356C140.376 32.476 140.064 32.656 139.776 32.896C139.488 33.112 139.236 33.4 139.02 33.76C138.804 34.096 138.636 34.48 138.516 34.912C138.42 35.344 138.372 35.812 138.372 36.316V46H133.764V21.772ZM152.844 29.152H157.56L157.524 33.832L157.02 33.58C157.092 32.86 157.284 32.212 157.596 31.636C157.908 31.036 158.304 30.52 158.784 30.088C159.288 29.656 159.828 29.332 160.404 29.116C161.004 28.876 161.616 28.756 162.24 28.756C163.2 28.756 164.064 28.912 164.832 29.224C165.6 29.536 166.308 30.028 166.956 30.7L165.048 34.588L164.94 34.876L164.58 34.732C164.508 34.54 164.436 34.336 164.364 34.12C164.316 33.904 164.16 33.652 163.896 33.364C163.56 33.124 163.2 32.92 162.816 32.752C162.432 32.584 162.012 32.5 161.556 32.5C160.98 32.5 160.44 32.596 159.936 32.788C159.456 32.956 159.036 33.232 158.676 33.616C158.316 34 158.028 34.492 157.812 35.092C157.596 35.668 157.488 36.376 157.488 37.216V46H152.844V29.152ZM174.948 46.432C173.124 46.432 171.696 46 170.664 45.136C169.632 44.248 169.116 43.096 169.116 41.68C169.116 40.768 169.308 39.94 169.692 39.196C170.1 38.428 170.7 37.756 171.492 37.18C172.308 36.604 173.328 36.16 174.552 35.848C175.776 35.512 177.204 35.344 178.836 35.344C178.98 35.344 179.172 35.356 179.412 35.38C179.652 35.38 179.916 35.38 180.204 35.38C180.492 35.38 180.756 35.392 180.996 35.416L181.104 38.512C180.912 38.488 180.66 38.476 180.348 38.476C180.06 38.476 179.76 38.476 179.448 38.476C179.136 38.476 178.884 38.476 178.692 38.476C177.684 38.476 176.856 38.548 176.208 38.692C175.584 38.812 175.08 38.992 174.696 39.232C174.336 39.472 174.084 39.748 173.94 40.06C173.796 40.372 173.724 40.708 173.724 41.068C173.724 41.38 173.772 41.668 173.868 41.932C173.988 42.172 174.144 42.364 174.336 42.508C174.528 42.628 174.756 42.724 175.02 42.796C175.308 42.868 175.608 42.904 175.92 42.904C176.568 42.904 177.132 42.796 177.612 42.58C178.092 42.364 178.488 42.028 178.8 41.572C179.136 41.092 179.376 40.492 179.52 39.772C179.688 39.028 179.772 38.152 179.772 37.144C179.772 35.824 179.64 34.816 179.376 34.12C179.112 33.424 178.74 32.944 178.26 32.68C177.78 32.416 177.18 32.284 176.46 32.284C175.716 32.284 175.008 32.404 174.336 32.644C173.688 32.86 173.028 33.316 172.356 34.012L169.8 31.312C170.808 30.376 171.9 29.716 173.076 29.332C174.276 28.948 175.464 28.756 176.64 28.756C177.672 28.756 178.644 28.876 179.556 29.116C180.492 29.356 181.308 29.752 182.004 30.304C182.724 30.832 183.288 31.576 183.696 32.536C184.104 33.472 184.308 34.648 184.308 36.064V46H179.628V44.416C179.316 44.776 178.992 45.088 178.656 45.352C178.344 45.616 177.996 45.832 177.612 46C177.228 46.144 176.82 46.252 176.388 46.324C175.956 46.396 175.476 46.432 174.948 46.432ZM192.84 52.336C191.664 52.336 190.608 52.108 189.672 51.652C188.736 51.22 187.872 50.572 187.08 49.708L189.564 46.432L189.78 46.18L190.104 46.36C190.152 46.552 190.188 46.744 190.212 46.936C190.26 47.152 190.404 47.416 190.644 47.728C190.932 47.992 191.244 48.196 191.58 48.34C191.94 48.508 192.36 48.592 192.84 48.592C193.416 48.592 193.884 48.472 194.244 48.232C194.604 47.992 194.856 47.62 195 47.116C195.144 46.636 195.216 46.036 195.216 45.316V32.752H189.456V29.152H199.86V44.884C199.86 46.66 199.524 48.1 198.852 49.204C198.18 50.308 197.304 51.1 196.224 51.58C195.168 52.084 194.04 52.336 192.84 52.336ZM197.232 26.596C196.464 26.596 195.804 26.344 195.252 25.84C194.724 25.312 194.46 24.688 194.46 23.968C194.46 23.2 194.712 22.564 195.216 22.06C195.744 21.556 196.416 21.304 197.232 21.304C197.976 21.304 198.624 21.568 199.176 22.096C199.752 22.624 200.04 23.248 200.04 23.968C200.04 24.688 199.752 25.312 199.176 25.84C198.624 26.344 197.976 26.596 197.232 26.596ZM211.524 46.432C210.828 46.432 210.18 46.336 209.58 46.144C208.98 45.976 208.428 45.712 207.924 45.352C207.444 44.992 207.024 44.536 206.664 43.984C206.328 43.408 206.064 42.724 205.872 41.932C205.68 41.14 205.584 40.24 205.584 39.232V29.152H210.192V39.232C210.192 39.88 210.24 40.432 210.336 40.888C210.456 41.32 210.612 41.68 210.804 41.968C211.02 42.256 211.26 42.472 211.524 42.616C211.788 42.736 212.076 42.796 212.388 42.796C212.868 42.796 213.3 42.712 213.684 42.544C214.068 42.376 214.392 42.136 214.656 41.824C214.944 41.488 215.148 41.08 215.268 40.6C215.412 40.096 215.484 39.508 215.484 38.836V29.152H220.092V43.3C220.092 43.852 220.104 44.344 220.128 44.776C220.176 45.184 220.284 45.592 220.452 46H216.312C216.192 45.76 216.108 45.532 216.06 45.316C216.012 45.076 215.976 44.848 215.952 44.632C215.952 44.392 215.952 44.164 215.952 43.948C215.712 44.356 215.424 44.716 215.088 45.028C214.752 45.34 214.392 45.604 214.008 45.82C213.624 46.012 213.216 46.156 212.784 46.252C212.376 46.372 211.956 46.432 211.524 46.432Z" fill="black" fill-opacity="0.64"/>
<path d="M230.64 46.468C229.8 46.468 229.092 46.18 228.516 45.604C227.964 45.028 227.688 44.332 227.688 43.516C227.688 42.7 227.964 42.016 228.516 41.464C229.092 40.888 229.8 40.6 230.64 40.6C231.432 40.6 232.116 40.888 232.692 41.464C233.268 42.016 233.556 42.7 233.556 43.516C233.556 44.332 233.268 45.028 232.692 45.604C232.116 46.18 231.432 46.468 230.64 46.468ZM248.028 46.432C247.068 46.432 246.168 46.252 245.328 45.892C244.488 45.508 243.744 44.944 243.096 44.2C242.448 43.456 241.944 42.532 241.584 41.428C241.224 40.3 241.044 39.004 241.044 37.54C241.044 36.1 241.212 34.828 241.548 33.724C241.884 32.62 242.364 31.708 242.988 30.988C243.612 30.244 244.356 29.692 245.22 29.332C246.084 28.948 247.02 28.756 248.028 28.756C248.532 28.756 249.012 28.804 249.468 28.9C249.948 28.996 250.392 29.164 250.8 29.404C251.208 29.644 251.544 29.992 251.808 30.448V21.772H256.38H256.704V22.132C256.584 22.276 256.5 22.432 256.452 22.6C256.404 22.768 256.392 23.056 256.416 23.464L256.344 43.876C256.344 44.236 256.368 44.596 256.416 44.956C256.464 45.292 256.572 45.64 256.74 46H252.24C252.12 45.76 252.036 45.568 251.988 45.424C251.94 45.28 251.916 45.136 251.916 44.992C251.916 44.848 251.916 44.656 251.916 44.416C251.628 44.872 251.28 45.256 250.872 45.568C250.464 45.856 250.02 46.072 249.54 46.216C249.06 46.36 248.556 46.432 248.028 46.432ZM248.82 42.796C249.3 42.796 249.72 42.7 250.08 42.508C250.464 42.292 250.776 41.98 251.016 41.572C251.28 41.164 251.472 40.624 251.592 39.952C251.712 39.28 251.772 38.476 251.772 37.54C251.772 36.292 251.664 35.284 251.448 34.516C251.232 33.724 250.896 33.148 250.44 32.788C250.008 32.428 249.444 32.248 248.748 32.248C248.244 32.248 247.788 32.38 247.38 32.644C246.972 32.884 246.624 33.232 246.336 33.688C246.072 34.144 245.868 34.708 245.724 35.38C245.58 36.028 245.508 36.76 245.508 37.576C245.508 38.656 245.664 39.592 245.976 40.384C246.312 41.176 246.732 41.776 247.236 42.184C247.74 42.592 248.268 42.796 248.82 42.796ZM267.72 46.432C266.52 46.432 265.404 46.24 264.372 45.856C263.34 45.448 262.44 44.872 261.672 44.128C260.928 43.384 260.34 42.472 259.908 41.392C259.476 40.312 259.26 39.088 259.26 37.72C259.26 36.328 259.464 35.08 259.872 33.976C260.304 32.848 260.88 31.9 261.6 31.132C262.32 30.364 263.16 29.776 264.12 29.368C265.104 28.96 266.16 28.756 267.288 28.756C268.272 28.756 269.196 28.936 270.06 29.296C270.948 29.632 271.728 30.148 272.4 30.844C273.096 31.54 273.636 32.404 274.02 33.436C274.428 34.468 274.632 35.656 274.632 37C274.632 37.264 274.632 37.588 274.632 37.972C274.632 38.356 274.62 38.68 274.596 38.944H263.688C263.736 39.616 263.88 40.204 264.12 40.708C264.384 41.188 264.708 41.596 265.092 41.932C265.5 42.244 265.944 42.484 266.424 42.652C266.928 42.796 267.432 42.868 267.936 42.868C268.44 42.868 268.908 42.832 269.34 42.76C269.796 42.664 270.228 42.508 270.636 42.292C271.068 42.076 271.476 41.764 271.86 41.356L274.164 43.624C273.612 44.272 273 44.812 272.328 45.244C271.656 45.652 270.924 45.952 270.132 46.144C269.364 46.336 268.56 46.432 267.72 46.432ZM263.724 35.524H270.24C270.24 34.996 270.168 34.528 270.024 34.12C269.904 33.712 269.7 33.376 269.412 33.112C269.148 32.848 268.824 32.656 268.44 32.536C268.056 32.392 267.612 32.32 267.108 32.32C266.676 32.32 266.268 32.38 265.884 32.5C265.5 32.62 265.152 32.812 264.84 33.076C264.552 33.34 264.312 33.676 264.12 34.084C263.928 34.492 263.796 34.972 263.724 35.524ZM283.128 46L276.936 29.152H281.724L285.648 40.672H285.072L287.124 35.596C287.508 34.492 287.832 33.4 288.096 32.32C288.36 31.216 288.516 30.16 288.564 29.152H292.812C292.716 30.232 292.476 31.36 292.092 32.536C291.708 33.712 291.276 34.888 290.796 36.064L286.764 46H283.128Z" fill="#4FD1C5"/>
<rect x="244" y="55" width="50" height="10" rx="5" fill="#4FD1C5"/>
<rect x="224" y="55" width="15" height="10" rx="5" fill="#4FD1C5"/>
<rect x="205" y="55" width="15" height="10" rx="5" fill="#4FD1C5"/>
</svg>
