<svg width="269" height="51" viewBox="0 0 269 51" fill="none" xmlns="http://www.w3.org/2000/svg">
<path d="M10.112 36.224C8.46933 36.224 6.99733 35.9573 5.696 35.424C4.39467 34.8907 3.34933 34.1013 2.56 33.056C1.792 32.0107 1.38667 30.752 1.344 29.28H7.168C7.25333 30.112 7.54133 30.752 8.032 31.2C8.52267 31.6267 9.16267 31.84 9.952 31.84C10.7627 31.84 11.4027 31.6587 11.872 31.296C12.3413 30.912 12.576 30.3893 12.576 29.728C12.576 29.1733 12.384 28.7147 12 28.352C11.6373 27.9893 11.1787 27.6907 10.624 27.456C10.0907 27.2213 9.32267 26.9547 8.32 26.656C6.86933 26.208 5.68533 25.76 4.768 25.312C3.85067 24.864 3.06133 24.2027 2.4 23.328C1.73867 22.4533 1.408 21.312 1.408 19.904C1.408 17.8133 2.16533 16.1813 3.68 15.008C5.19467 13.8133 7.168 13.216 9.6 13.216C12.0747 13.216 14.0693 13.8133 15.584 15.008C17.0987 16.1813 17.9093 17.824 18.016 19.936H12.096C12.0533 19.2107 11.7867 18.6453 11.296 18.24C10.8053 17.8133 10.176 17.6 9.408 17.6C8.74667 17.6 8.21333 17.7813 7.808 18.144C7.40267 18.4853 7.2 18.9867 7.2 19.648C7.2 20.3733 7.54133 20.9387 8.224 21.344C8.90667 21.7493 9.97333 22.1867 11.424 22.656C12.8747 23.1467 14.048 23.616 14.944 24.064C15.8613 24.512 16.6507 25.1627 17.312 26.016C17.9733 26.8693 18.304 27.968 18.304 29.312C18.304 30.592 17.9733 31.7547 17.312 32.8C16.672 33.8453 15.7333 34.6773 14.496 35.296C13.2587 35.9147 11.7973 36.224 10.112 36.224ZM20.5835 27.04C20.5835 25.2053 20.9248 23.5947 21.6075 22.208C22.3115 20.8213 23.2608 19.7547 24.4555 19.008C25.6502 18.2613 26.9835 17.888 28.4555 17.888C29.7142 17.888 30.8128 18.144 31.7515 18.656C32.7115 19.168 33.4475 19.84 33.9595 20.672V18.144H39.4315V36H33.9595V33.472C33.4262 34.304 32.6795 34.976 31.7195 35.488C30.7808 36 29.6822 36.256 28.4235 36.256C26.9728 36.256 25.6502 35.8827 24.4555 35.136C23.2608 34.368 22.3115 33.2907 21.6075 31.904C20.9248 30.496 20.5835 28.8747 20.5835 27.04ZM33.9595 27.072C33.9595 25.7067 33.5755 24.6293 32.8075 23.84C32.0608 23.0507 31.1435 22.656 30.0555 22.656C28.9675 22.656 28.0395 23.0507 27.2715 23.84C26.5248 24.608 26.1515 25.6747 26.1515 27.04C26.1515 28.4053 26.5248 29.4933 27.2715 30.304C28.0395 31.0933 28.9675 31.488 30.0555 31.488C31.1435 31.488 32.0608 31.0933 32.8075 30.304C33.5755 29.5147 33.9595 28.4373 33.9595 27.072ZM54.2703 17.952C56.3609 17.952 58.0249 18.6347 59.2623 20C60.5209 21.344 61.1503 23.2 61.1503 25.568V36H55.7103V26.304C55.7103 25.1093 55.4009 24.1813 54.7823 23.52C54.1636 22.8587 53.3316 22.528 52.2863 22.528C51.2409 22.528 50.4089 22.8587 49.7903 23.52C49.1716 24.1813 48.8623 25.1093 48.8623 26.304V36H43.3903V18.144H48.8623V20.512C49.4169 19.7227 50.1636 19.104 51.1023 18.656C52.0409 18.1867 53.0969 17.952 54.2703 17.952ZM74.9048 31.36V36H72.1208C70.1368 36 68.5901 35.52 67.4808 34.56C66.3714 33.5787 65.8168 31.9893 65.8168 29.792V22.688H63.6408V18.144H65.8168V13.792H71.2888V18.144H74.8728V22.688H71.2888V29.856C71.2888 30.3893 71.4168 30.7733 71.6728 31.008C71.9288 31.2427 72.3554 31.36 72.9528 31.36H74.9048ZM88.9288 17.952C90.9768 17.952 92.6194 18.6347 93.8568 20C95.0941 21.344 95.7128 23.2 95.7128 25.568V36H90.2728V26.304C90.2728 25.1093 89.9634 24.1813 89.3448 23.52C88.7261 22.8587 87.8941 22.528 86.8488 22.528C85.8034 22.528 84.9714 22.8587 84.3528 23.52C83.7341 24.1813 83.4248 25.1093 83.4248 26.304V36H77.9528V12.32H83.4248V20.544C83.9794 19.7547 84.7368 19.1253 85.6968 18.656C86.6568 18.1867 87.7341 17.952 88.9288 17.952ZM107.643 36.256C105.894 36.256 104.315 35.8827 102.907 35.136C101.521 34.3893 100.422 33.3227 99.6113 31.936C98.8219 30.5493 98.4273 28.928 98.4273 27.072C98.4273 25.2373 98.8326 23.6267 99.6432 22.24C100.454 20.832 101.563 19.7547 102.971 19.008C104.379 18.2613 105.958 17.888 107.707 17.888C109.457 17.888 111.035 18.2613 112.443 19.008C113.851 19.7547 114.961 20.832 115.771 22.24C116.582 23.6267 116.987 25.2373 116.987 27.072C116.987 28.9067 116.571 30.528 115.739 31.936C114.929 33.3227 113.809 34.3893 112.379 35.136C110.971 35.8827 109.393 36.256 107.643 36.256ZM107.643 31.52C108.689 31.52 109.574 31.136 110.299 30.368C111.046 29.6 111.419 28.5013 111.419 27.072C111.419 25.6427 111.057 24.544 110.331 23.776C109.627 23.008 108.753 22.624 107.707 22.624C106.641 22.624 105.755 23.008 105.051 23.776C104.347 24.5227 103.995 25.6213 103.995 27.072C103.995 28.5013 104.337 29.6 105.019 30.368C105.723 31.136 106.598 31.52 107.643 31.52ZM127.154 36.256C125.597 36.256 124.21 35.9893 122.994 35.456C121.778 34.9227 120.818 34.1973 120.114 33.28C119.41 32.3413 119.016 31.296 118.93 30.144H124.338C124.402 30.7627 124.69 31.264 125.202 31.648C125.714 32.032 126.344 32.224 127.09 32.224C127.773 32.224 128.296 32.096 128.658 31.84C129.042 31.5627 129.234 31.2107 129.234 30.784C129.234 30.272 128.968 29.8987 128.434 29.664C127.901 29.408 127.037 29.1307 125.842 28.832C124.562 28.5333 123.496 28.224 122.642 27.904C121.789 27.5627 121.053 27.04 120.434 26.336C119.816 25.6107 119.506 24.64 119.506 23.424C119.506 22.4 119.784 21.472 120.338 20.64C120.914 19.7867 121.746 19.1147 122.834 18.624C123.944 18.1333 125.256 17.888 126.77 17.888C129.01 17.888 130.77 18.4427 132.05 19.552C133.352 20.6613 134.098 22.1333 134.29 23.968H129.234C129.149 23.3493 128.872 22.8587 128.402 22.496C127.954 22.1333 127.357 21.952 126.61 21.952C125.97 21.952 125.48 22.08 125.138 22.336C124.797 22.5707 124.626 22.9013 124.626 23.328C124.626 23.84 124.893 24.224 125.426 24.48C125.981 24.736 126.834 24.992 127.986 25.248C129.309 25.5893 130.386 25.9307 131.218 26.272C132.05 26.592 132.776 27.1253 133.394 27.872C134.034 28.5973 134.365 29.5787 134.386 30.816C134.386 31.8613 134.088 32.8 133.49 33.632C132.914 34.4427 132.072 35.0827 130.962 35.552C129.874 36.0213 128.605 36.256 127.154 36.256ZM148.71 17.952C150.758 17.952 152.401 18.6347 153.638 20C154.875 21.344 155.494 23.2 155.494 25.568V36H150.054V26.304C150.054 25.1093 149.745 24.1813 149.126 23.52C148.507 22.8587 147.675 22.528 146.63 22.528C145.585 22.528 144.753 22.8587 144.134 23.52C143.515 24.1813 143.206 25.1093 143.206 26.304V36H137.734V12.32H143.206V20.544C143.761 19.7547 144.518 19.1253 145.478 18.656C146.438 18.1867 147.515 17.952 148.71 17.952ZM170.753 36L166.081 27.52H164.769V36H159.297V13.536H168.481C170.251 13.536 171.755 13.8453 172.993 14.464C174.251 15.0827 175.19 15.936 175.809 17.024C176.427 18.0907 176.737 19.2853 176.737 20.608C176.737 22.1013 176.31 23.4347 175.457 24.608C174.625 25.7813 173.387 26.6133 171.745 27.104L176.929 36H170.753ZM164.769 23.648H168.161C169.163 23.648 169.91 23.4027 170.401 22.912C170.913 22.4213 171.169 21.728 171.169 20.832C171.169 19.9787 170.913 19.3067 170.401 18.816C169.91 18.3253 169.163 18.08 168.161 18.08H164.769V23.648ZM179.084 27.04C179.084 25.2053 179.425 23.5947 180.108 22.208C180.812 20.8213 181.761 19.7547 182.956 19.008C184.15 18.2613 185.484 17.888 186.956 17.888C188.214 17.888 189.313 18.144 190.252 18.656C191.212 19.168 191.948 19.84 192.46 20.672V18.144H197.932V36H192.46V33.472C191.926 34.304 191.18 34.976 190.22 35.488C189.281 36 188.182 36.256 186.924 36.256C185.473 36.256 184.15 35.8827 182.956 35.136C181.761 34.368 180.812 33.2907 180.108 31.904C179.425 30.496 179.084 28.8747 179.084 27.04ZM192.46 27.072C192.46 25.7067 192.076 24.6293 191.308 23.84C190.561 23.0507 189.644 22.656 188.556 22.656C187.468 22.656 186.54 23.0507 185.772 23.84C185.025 24.608 184.652 25.6747 184.652 27.04C184.652 28.4053 185.025 29.4933 185.772 30.304C186.54 31.0933 187.468 31.488 188.556 31.488C189.644 31.488 190.561 31.0933 191.308 30.304C192.076 29.5147 192.46 28.4373 192.46 27.072ZM204.61 16.288C203.65 16.288 202.861 16.0107 202.242 15.456C201.645 14.88 201.346 14.176 201.346 13.344C201.346 12.4907 201.645 11.7867 202.242 11.232C202.861 10.656 203.65 10.368 204.61 10.368C205.549 10.368 206.317 10.656 206.914 11.232C207.533 11.7867 207.842 12.4907 207.842 13.344C207.842 14.176 207.533 14.88 206.914 15.456C206.317 16.0107 205.549 16.288 204.61 16.288ZM207.362 38.304C207.362 40.5013 206.808 42.08 205.698 43.04C204.589 44.0213 203.042 44.512 201.058 44.512H198.914V39.872H200.226C200.824 39.872 201.25 39.7547 201.506 39.52C201.762 39.2853 201.89 38.9013 201.89 38.368V18.144H207.362V38.304ZM228.929 18.144V36H223.457V33.568C222.902 34.3573 222.145 34.9973 221.185 35.488C220.246 35.9573 219.201 36.192 218.049 36.192C216.683 36.192 215.478 35.8933 214.433 35.296C213.387 34.6773 212.577 33.792 212.001 32.64C211.425 31.488 211.137 30.1333 211.137 28.576V18.144H216.577V27.84C216.577 29.0347 216.886 29.9627 217.505 30.624C218.123 31.2853 218.955 31.616 220.001 31.616C221.067 31.616 221.91 31.2853 222.529 30.624C223.147 29.9627 223.457 29.0347 223.457 27.84V18.144H228.929Z" fill="#51E69E"/>
<path d="M232.783 36.108C232.471 36.108 232.207 36 231.991 35.784C231.775 35.568 231.667 35.304 231.667 34.992C231.667 34.68 231.775 34.416 231.991 34.2C232.207 33.984 232.471 33.876 232.783 33.876C233.083 33.876 233.335 33.984 233.539 34.2C233.755 34.416 233.863 34.68 233.863 34.992C233.863 35.304 233.755 35.568 233.539 35.784C233.335 36 233.083 36.108 232.783 36.108ZM235.428 31.032C235.428 30.024 235.632 29.142 236.04 28.386C236.448 27.618 237.006 27.024 237.714 26.604C238.434 26.184 239.238 25.974 240.126 25.974C240.894 25.974 241.608 26.154 242.268 26.514C242.928 26.862 243.432 27.324 243.78 27.9V22.68H245.436V36H243.78V34.146C243.456 34.734 242.976 35.22 242.34 35.604C241.704 35.976 240.96 36.162 240.108 36.162C239.232 36.162 238.434 35.946 237.714 35.514C237.006 35.082 236.448 34.476 236.04 33.696C235.632 32.916 235.428 32.028 235.428 31.032ZM243.78 31.05C243.78 30.306 243.63 29.658 243.33 29.106C243.03 28.554 242.622 28.134 242.106 27.846C241.602 27.546 241.044 27.396 240.432 27.396C239.82 27.396 239.262 27.54 238.758 27.828C238.254 28.116 237.852 28.536 237.552 29.088C237.252 29.64 237.102 30.288 237.102 31.032C237.102 31.788 237.252 32.448 237.552 33.012C237.852 33.564 238.254 33.99 238.758 34.29C239.262 34.578 239.82 34.722 240.432 34.722C241.044 34.722 241.602 34.578 242.106 34.29C242.622 33.99 243.03 33.564 243.33 33.012C243.63 32.448 243.78 31.794 243.78 31.05ZM257.204 30.69C257.204 31.002 257.186 31.332 257.15 31.68H249.266C249.326 32.652 249.656 33.414 250.256 33.966C250.868 34.506 251.606 34.776 252.47 34.776C253.178 34.776 253.766 34.614 254.234 34.29C254.714 33.954 255.05 33.51 255.242 32.958H257.006C256.742 33.906 256.214 34.68 255.422 35.28C254.63 35.868 253.646 36.162 252.47 36.162C251.534 36.162 250.694 35.952 249.95 35.532C249.218 35.112 248.642 34.518 248.222 33.75C247.802 32.97 247.592 32.07 247.592 31.05C247.592 30.03 247.796 29.136 248.204 28.368C248.612 27.6 249.182 27.012 249.914 26.604C250.658 26.184 251.51 25.974 252.47 25.974C253.406 25.974 254.234 26.178 254.954 26.586C255.674 26.994 256.226 27.558 256.61 28.278C257.006 28.986 257.204 29.79 257.204 30.69ZM255.512 30.348C255.512 29.724 255.374 29.19 255.098 28.746C254.822 28.29 254.444 27.948 253.964 27.72C253.496 27.48 252.974 27.36 252.398 27.36C251.57 27.36 250.862 27.624 250.274 28.152C249.698 28.68 249.368 29.412 249.284 30.348H255.512ZM263.038 34.488L266.098 26.136H267.844L263.974 36H262.066L258.196 26.136H259.96L263.038 34.488Z" fill="#F48D14"/>
<rect y="45" width="15" height="6" rx="3" fill="#F48D14"/>
<rect x="18" y="45" width="15" height="6" rx="3" fill="#F48D14"/>
<rect x="36" y="45" width="74" height="6" rx="3" fill="#F48D14"/>
</svg>
