<svg width="28" height="14" viewBox="0 0 28 14" fill="none" xmlns="http://www.w3.org/2000/svg">
<path d="M14.7604 7C14.7604 10.866 11.4562 14 7.38019 14C3.30422 14 0 10.866 0 7C0 3.13401 3.30422 0 7.38019 0C11.4562 0 14.7604 3.13401 14.7604 7ZM3.94176 7C3.94176 8.80117 5.4812 10.2613 7.38019 10.2613C9.27919 10.2613 10.8186 8.80117 10.8186 7C10.8186 5.19883 9.27919 3.7387 7.38019 3.7387C5.4812 3.7387 3.94176 5.19883 3.94176 7Z" fill="#4FD1C5"/>
<path d="M28 7C28 10.866 24.6958 14 20.6198 14C16.5438 14 13.2396 10.866 13.2396 7C13.2396 3.13401 16.5438 0 20.6198 0C24.6958 0 28 3.13401 28 7ZM17.1814 7C17.1814 8.80117 18.7208 10.2613 20.6198 10.2613C22.5188 10.2613 24.0582 8.80117 24.0582 7C24.0582 5.19883 22.5188 3.7387 20.6198 3.7387C18.7208 3.7387 17.1814 5.19883 17.1814 7Z" fill="#4FD1C5"/>
<rect x="7.16931" y="6" width="13.4952" height="2.4" fill="#4FD1C5"/>
</svg>
