<svg width="248" height="40" viewBox="0 0 248 40" fill="none" xmlns="http://www.w3.org/2000/svg">
<path d="M40 20C40 31.0457 31.0457 40 20 40C8.95431 40 0 31.0457 0 20C0 8.95431 8.95431 0 20 0C31.0457 0 40 8.95431 40 20ZM10.6823 20C10.6823 25.146 14.854 29.3177 20 29.3177C25.146 29.3177 29.3177 25.146 29.3177 20C29.3177 14.854 25.146 10.6823 20 10.6823C14.854 10.6823 10.6823 14.854 10.6823 20Z" fill="#4FD1C5"/>
<path d="M69 20C69 31.0457 60.0457 40 49 40C37.9543 40 29 31.0457 29 20C29 8.95431 37.9543 0 49 0C60.0457 0 69 8.95431 69 20ZM39.6823 20C39.6823 25.146 43.854 29.3177 49 29.3177C54.146 29.3177 58.3177 25.146 58.3177 20C58.3177 14.854 54.146 10.6823 49 10.6823C43.854 10.6823 39.6823 14.854 39.6823 20Z" fill="#4FD1C5"/>
<rect x="19" y="15" width="30" height="10" fill="#4FD1C5"/>
<path d="M91.75 19.9062C91.5284 17.3153 89.4062 15.7386 85.8608 15.7386C82.3153 15.7386 80.0568 17.2812 80.0739 19.9062C80.0568 21.9176 81.3438 23.2131 83.9602 23.6989L86.2443 24.1335C87.3267 24.3466 87.821 24.6875 87.8381 25.267C87.821 25.9233 87.0881 26.358 86.0227 26.358C84.8381 26.358 84.0369 25.8466 83.858 24.892L79.7415 24.9943C80.0398 27.5852 82.2642 29.2472 86.0057 29.2472C89.5085 29.2472 92.0568 27.5 92.0739 24.8068C92.0568 22.8977 90.7955 21.7642 88.1875 21.2614L85.6648 20.7841C84.5568 20.5625 84.1989 20.1705 84.2074 19.6676C84.1989 19.0028 84.9744 18.5938 85.9375 18.5938C87.0369 18.5938 87.804 19.1818 87.9233 20.0085L91.75 19.9062ZM97.8161 29.2216C99.6399 29.2216 100.901 28.5142 101.617 27.1761H101.719V29H105.64V20.1023C105.64 17.3324 103.177 15.7386 99.8445 15.7386C96.3246 15.7386 94.3303 17.5114 93.9979 19.8977L97.8416 20.0341C98.0206 19.1989 98.7109 18.6875 99.8104 18.6875C100.833 18.6875 101.481 19.1818 101.481 20.0597V20.1023C101.481 20.9034 100.612 21.0739 98.3786 21.2699C95.728 21.4915 93.5121 22.4716 93.5121 25.3693C93.5121 27.9602 95.3104 29.2216 97.8161 29.2216ZM99.103 26.4943C98.1399 26.4943 97.4581 26.0341 97.4581 25.1648C97.4581 24.321 98.1229 23.8097 99.3075 23.6307C100.083 23.5199 101.038 23.3494 101.506 23.1023V24.3466C101.506 25.625 100.433 26.4943 99.103 26.4943ZM112.356 21.5341C112.364 20.0426 113.234 19.1562 114.555 19.1562C115.876 19.1562 116.66 20.0256 116.651 21.4744V29H120.819V20.6562C120.827 17.7074 119.029 15.7386 116.276 15.7386C114.342 15.7386 112.876 16.7188 112.296 18.3125H112.151V15.9091H108.188V29H112.356V21.5341ZM130.788 15.9091H128.428V12.7727H124.26V15.9091H122.53V18.9773H124.26V25.3438C124.234 27.9943 125.956 29.3239 128.896 29.1875C129.902 29.1364 130.626 28.9318 131.027 28.8125L130.396 25.804C130.217 25.8466 129.8 25.9318 129.484 25.9318C128.811 25.9318 128.428 25.6591 128.428 24.8835V18.9773H130.788V15.9091ZM137.364 21.5341C137.372 20.0426 138.259 19.1562 139.58 19.1562C140.918 19.1562 141.693 20.017 141.685 21.4744V29H145.852V20.6562C145.861 17.6903 144.054 15.7386 141.301 15.7386C139.341 15.7386 137.96 16.7017 137.372 18.3125H137.227V11.5455H133.196V29H137.364V21.5341ZM154.565 29.2472C158.681 29.2472 161.178 26.5284 161.178 22.4972C161.178 18.4574 158.681 15.7386 154.565 15.7386C150.448 15.7386 147.951 18.4574 147.951 22.4972C147.951 26.5284 150.448 29.2472 154.565 29.2472ZM154.59 26.1023C153.048 26.1023 152.195 24.6364 152.195 22.4716C152.195 20.2983 153.048 18.8239 154.59 18.8239C156.082 18.8239 156.934 20.2983 156.934 22.4716C156.934 24.6364 156.082 26.1023 154.59 26.1023ZM174.742 19.9062C174.521 17.3153 172.398 15.7386 168.853 15.7386C165.308 15.7386 163.049 17.2812 163.066 19.9062C163.049 21.9176 164.336 23.2131 166.952 23.6989L169.237 24.1335C170.319 24.3466 170.813 24.6875 170.83 25.267C170.813 25.9233 170.08 26.358 169.015 26.358C167.83 26.358 167.029 25.8466 166.85 24.892L162.734 24.9943C163.032 27.5852 165.256 29.2472 168.998 29.2472C172.501 29.2472 175.049 27.5 175.066 24.8068C175.049 22.8977 173.788 21.7642 171.18 21.2614L168.657 20.7841C167.549 20.5625 167.191 20.1705 167.2 19.6676C167.191 19.0028 167.967 18.5938 168.93 18.5938C170.029 18.5938 170.796 19.1818 170.915 20.0085L174.742 19.9062ZM181.286 21.5341C181.294 20.0426 182.18 19.1562 183.501 19.1562C184.839 19.1562 185.615 20.017 185.607 21.4744V29H189.774V20.6562C189.783 17.6903 187.976 15.7386 185.223 15.7386C183.263 15.7386 181.882 16.7017 181.294 18.3125H181.149V11.5455H177.118V29H181.286V21.5341ZM194.719 29.2472C195.887 29.2472 196.918 28.2585 196.935 27.0312C196.918 25.821 195.887 24.8409 194.719 24.8409C193.492 24.8409 192.487 25.821 192.504 27.0312C192.487 28.2585 193.492 29.2472 194.719 29.2472ZM199.688 29H203.856V21.892C203.856 20.3324 204.964 19.2841 206.455 19.2841C206.95 19.2841 207.691 19.3693 208.092 19.5057V15.8835C207.742 15.7898 207.308 15.7301 206.924 15.7301C205.492 15.7301 204.35 16.5653 203.873 18.2955H203.737V15.9091H199.688V29ZM212.988 29.2216C214.812 29.2216 216.073 28.5142 216.789 27.1761H216.891V29H220.812V20.1023C220.812 17.3324 218.349 15.7386 215.016 15.7386C211.496 15.7386 209.502 17.5114 209.17 19.8977L213.013 20.0341C213.192 19.1989 213.883 18.6875 214.982 18.6875C216.005 18.6875 216.653 19.1818 216.653 20.0597V20.1023C216.653 20.9034 215.783 21.0739 213.55 21.2699C210.9 21.4915 208.684 22.4716 208.684 25.3693C208.684 27.9602 210.482 29.2216 212.988 29.2216ZM214.275 26.4943C213.312 26.4943 212.63 26.0341 212.63 25.1648C212.63 24.321 213.295 23.8097 214.479 23.6307C215.255 23.5199 216.21 23.3494 216.678 23.1023V24.3466C216.678 25.625 215.604 26.4943 214.275 26.4943ZM223.36 15.9091V29.4602C223.36 30.3381 222.977 30.7557 221.835 30.7557C221.673 30.7557 221.528 30.7472 221.323 30.7216V33.8835C221.63 33.9006 221.869 33.9091 222.167 33.9091C225.431 33.9091 227.528 32.7841 227.528 29.5455V15.9091H223.36ZM225.44 14.3835C226.624 14.3835 227.579 13.4886 227.579 12.3892C227.579 11.2898 226.624 10.4034 225.44 10.4034C224.263 10.4034 223.3 11.2898 223.3 12.3892C223.3 13.4886 224.263 14.3835 225.44 14.3835ZM238.626 23.3494C238.626 24.875 237.655 25.7273 236.419 25.7273C235.141 25.7273 234.357 24.858 234.348 23.4347V15.9091H230.18V24.2528C230.189 27.2102 231.987 29.1705 234.68 29.1705C236.641 29.1705 238.098 28.1648 238.678 26.5625H238.814V29H242.786V15.9091H238.626V23.3494Z" fill="#2D3748"/>
</svg>
