<svg width="227" height="43" viewBox="0 0 227 43" fill="none" xmlns="http://www.w3.org/2000/svg">
<g clip-path="url(#clip0_7_1002)">
<path d="M42.6061 21.303C42.6061 33.0684 33.0684 42.6061 21.303 42.6061C9.53769 42.6061 0 33.0684 0 21.303C0 9.53769 9.53769 0 21.303 0C33.0684 0 42.6061 9.53769 42.6061 21.303ZM11.3779 21.303C11.3779 26.7845 15.8216 31.2281 21.303 31.2281C26.7845 31.2281 31.2281 26.7845 31.2281 21.303C31.2281 15.8216 26.7845 11.3779 21.303 11.3779C15.8216 11.3779 11.3779 15.8216 11.3779 21.303Z" fill="#4FD1C5"/>
<path d="M74 21.303C74 33.0684 64.4623 42.6061 52.697 42.6061C40.9316 42.6061 31.3939 33.0684 31.3939 21.303C31.3939 9.53769 40.9316 0 52.697 0C64.4623 0 74 9.53769 74 21.303ZM42.7719 21.303C42.7719 26.7845 47.2155 31.2281 52.697 31.2281C58.1784 31.2281 62.622 26.7845 62.622 21.303C62.622 15.8216 58.1784 11.3779 52.697 11.3779C47.2155 11.3779 42.7719 15.8216 42.7719 21.303Z" fill="#4FD1C5"/>
<rect x="21.6768" y="17.9394" width="30.6465" height="7.47475" fill="#4FD1C5"/>
<path d="M99.625 20.7249C99.4403 18.5658 97.6719 17.2519 94.7173 17.2519C91.7628 17.2519 89.8807 18.5374 89.8949 20.7249C89.8807 22.4011 90.9531 23.4806 93.1335 23.8854L95.0369 24.2476C95.9389 24.4252 96.3509 24.7093 96.3651 25.1922C96.3509 25.7391 95.7401 26.1013 94.8523 26.1013C93.8651 26.1013 93.1974 25.6752 93.0483 24.8797L89.6179 24.965C89.8665 27.1241 91.7202 28.509 94.8381 28.509C97.7571 28.509 99.8807 27.053 99.8949 24.8087C99.8807 23.2178 98.8295 22.2732 96.6562 21.8542L94.554 21.4564C93.6307 21.2718 93.3324 20.9451 93.3395 20.5261C93.3324 19.9721 93.9787 19.6312 94.7812 19.6312C95.6974 19.6312 96.3366 20.1212 96.4361 20.8101L99.625 20.7249ZM104.68 28.4877C106.2 28.4877 107.251 27.8982 107.848 26.7832H107.933V28.303H111.2V20.8883C111.2 18.58 109.147 17.2519 106.37 17.2519C103.437 17.2519 101.775 18.7292 101.498 20.7178L104.701 20.8314C104.85 20.1354 105.426 19.7093 106.342 19.7093C107.194 19.7093 107.734 20.1212 107.734 20.8528V20.8883C107.734 21.5559 107.01 21.6979 105.149 21.8613C102.94 22.0459 101.093 22.8627 101.093 25.2775C101.093 27.4366 102.592 28.4877 104.68 28.4877ZM105.752 26.215C104.95 26.215 104.382 25.8314 104.382 25.107C104.382 24.4039 104.936 23.9778 105.923 23.8286C106.569 23.7363 107.365 23.5942 107.755 23.3883V24.4252C107.755 25.4905 106.86 26.215 105.752 26.215ZM116.797 22.0814C116.804 20.8386 117.528 20.0999 118.629 20.0999C119.73 20.0999 120.383 20.8243 120.376 22.0317V28.303H123.849V21.3499C123.856 18.8925 122.358 17.2519 120.064 17.2519C118.451 17.2519 117.23 18.0687 116.747 19.3968H116.626V17.3939H113.324V28.303H116.797V22.0814ZM132.157 17.3939H130.19V14.7803H126.717V17.3939H125.275V19.9508H126.717V25.2562C126.695 27.465 128.13 28.5729 130.58 28.4593C131.418 28.4167 132.022 28.2462 132.356 28.1468L131.83 25.6397C131.681 25.6752 131.333 25.7462 131.07 25.7462C130.509 25.7462 130.19 25.5189 130.19 24.8726V19.9508H132.157V17.3939ZM137.636 22.0814C137.643 20.8386 138.382 20.0999 139.483 20.0999C140.598 20.0999 141.244 20.8172 141.237 22.0317V28.303H144.71V21.3499C144.717 18.8783 143.212 17.2519 140.918 17.2519C139.284 17.2519 138.134 18.0545 137.643 19.3968H137.523V13.7576H134.163V28.303H137.636V22.0814ZM151.971 28.509C155.401 28.509 157.482 26.2434 157.482 22.884C157.482 19.5175 155.401 17.2519 151.971 17.2519C148.54 17.2519 146.459 19.5175 146.459 22.884C146.459 26.2434 148.54 28.509 151.971 28.509ZM151.992 25.8883C150.706 25.8883 149.996 24.6667 149.996 22.8627C149.996 21.0516 150.706 19.8229 151.992 19.8229C153.235 19.8229 153.945 21.0516 153.945 22.8627C153.945 24.6667 153.235 25.8883 151.992 25.8883ZM168.785 20.7249C168.6 18.5658 166.832 17.2519 163.877 17.2519C160.923 17.2519 159.041 18.5374 159.055 20.7249C159.041 22.4011 160.113 23.4806 162.294 23.8854L164.197 24.2476C165.099 24.4252 165.511 24.7093 165.525 25.1922C165.511 25.7391 164.9 26.1013 164.012 26.1013C163.025 26.1013 162.358 25.6752 162.208 24.8797L158.778 24.965C159.027 27.1241 160.88 28.509 163.998 28.509C166.917 28.509 169.041 27.053 169.055 24.8087C169.041 23.2178 167.99 22.2732 165.816 21.8542L163.714 21.4564C162.791 21.2718 162.493 20.9451 162.5 20.5261C162.493 19.9721 163.139 19.6312 163.941 19.6312C164.858 19.6312 165.497 20.1212 165.596 20.8101L168.785 20.7249ZM174.238 22.0814C174.245 20.8386 174.984 20.0999 176.085 20.0999C177.2 20.0999 177.846 20.8172 177.839 22.0317V28.303H181.312V21.3499C181.319 18.8783 179.813 17.2519 177.519 17.2519C175.886 17.2519 174.735 18.0545 174.245 19.3968H174.124V13.7576H170.765V28.303H174.238V22.0814ZM185.433 28.509C186.406 28.509 187.265 27.6851 187.279 26.6624C187.265 25.6539 186.406 24.8371 185.433 24.8371C184.41 24.8371 183.572 25.6539 183.586 26.6624C183.572 27.6851 184.41 28.509 185.433 28.509ZM189.574 28.303H193.047V22.3797C193.047 21.08 193.97 20.2064 195.213 20.2064C195.625 20.2064 196.243 20.2775 196.576 20.3911V17.3726C196.285 17.2945 195.923 17.2448 195.603 17.2448C194.41 17.2448 193.458 17.9408 193.061 19.3826H192.947V17.3939H189.574V28.303ZM200.657 28.4877C202.176 28.4877 203.228 27.8982 203.824 26.7832H203.909V28.303H207.176V20.8883C207.176 18.58 205.124 17.2519 202.347 17.2519C199.414 17.2519 197.752 18.7292 197.475 20.7178L200.678 20.8314C200.827 20.1354 201.402 19.7093 202.319 19.7093C203.171 19.7093 203.711 20.1212 203.711 20.8528V20.8883C203.711 21.5559 202.986 21.6979 201.125 21.8613C198.917 22.0459 197.07 22.8627 197.07 25.2775C197.07 27.4366 198.569 28.4877 200.657 28.4877ZM201.729 26.215C200.926 26.215 200.358 25.8314 200.358 25.107C200.358 24.4039 200.912 23.9778 201.9 23.8286C202.546 23.7363 203.341 23.5942 203.732 23.3883V24.4252C203.732 25.4905 202.837 26.215 201.729 26.215ZM209.3 17.3939V28.6866C209.3 29.4181 208.98 29.7661 208.029 29.7661C207.894 29.7661 207.773 29.759 207.603 29.7377V32.3726C207.858 32.3868 208.057 32.3939 208.306 32.3939C211.026 32.3939 212.773 31.4564 212.773 28.7576V17.3939H209.3ZM211.033 16.1226C212.02 16.1226 212.816 15.3769 212.816 14.4607C212.816 13.5445 212.02 12.8059 211.033 12.8059C210.053 12.8059 209.25 13.5445 209.25 14.4607C209.25 15.3769 210.053 16.1226 211.033 16.1226ZM222.022 23.5942C222.022 24.8655 221.212 25.5758 220.183 25.5758C219.117 25.5758 218.464 24.8513 218.457 23.6653V17.3939H214.984V24.3471C214.991 26.8116 216.489 28.4451 218.734 28.4451C220.367 28.4451 221.582 27.607 222.065 26.2718H222.178V28.303H225.488V17.3939H222.022V23.5942Z" fill="#2D3748"/>
</g>
<defs>
<clipPath id="clip0_7_1002">
<rect width="227" height="42.6061" fill="white"/>
</clipPath>
</defs>
</svg>
