<svg width="284" height="55" viewBox="0 0 284 55" fill="none" xmlns="http://www.w3.org/2000/svg">
<path d="M55 27.5C55 42.6878 42.6878 55 27.5 55C12.3122 55 0 42.6878 0 27.5C0 12.3122 12.3122 0 27.5 0C42.6878 0 55 12.3122 55 27.5ZM14.6882 27.5C14.6882 34.5758 20.4242 40.3118 27.5 40.3118C34.5758 40.3118 40.3118 34.5758 40.3118 27.5C40.3118 20.4242 34.5758 14.6882 27.5 14.6882C20.4242 14.6882 14.6882 20.4242 14.6882 27.5Z" fill="#4FD1C5"/>
<path d="M105 27.5C105 42.6878 92.6878 55 77.5 55C62.3122 55 50 42.6878 50 27.5C50 12.3122 62.3122 0 77.5 0C92.6878 0 105 12.3122 105 27.5ZM64.6882 27.5C64.6882 34.5758 70.4242 40.3118 77.5 40.3118C84.5758 40.3118 90.3118 34.5758 90.3118 27.5C90.3118 20.4242 84.5758 14.6882 77.5 14.6882C70.4242 14.6882 64.6882 20.4242 64.6882 27.5Z" fill="#4FD1C5"/>
<rect x="27" y="23" width="50" height="10" fill="#4FD1C5"/>
<path d="M127.75 27.4062C127.528 24.8153 125.406 23.2386 121.861 23.2386C118.315 23.2386 116.057 24.7812 116.074 27.4062C116.057 29.4176 117.344 30.7131 119.96 31.1989L122.244 31.6335C123.327 31.8466 123.821 32.1875 123.838 32.767C123.821 33.4233 123.088 33.858 122.023 33.858C120.838 33.858 120.037 33.3466 119.858 32.392L115.741 32.4943C116.04 35.0852 118.264 36.7472 122.006 36.7472C125.509 36.7472 128.057 35 128.074 32.3068C128.057 30.3977 126.795 29.2642 124.188 28.7614L121.665 28.2841C120.557 28.0625 120.199 27.6705 120.207 27.1676C120.199 26.5028 120.974 26.0938 121.938 26.0938C123.037 26.0938 123.804 26.6818 123.923 27.5085L127.75 27.4062ZM133.816 36.7216C135.64 36.7216 136.901 36.0142 137.617 34.6761H137.719V36.5H141.64V27.6023C141.64 24.8324 139.177 23.2386 135.844 23.2386C132.325 23.2386 130.33 25.0114 129.998 27.3977L133.842 27.5341C134.021 26.6989 134.711 26.1875 135.81 26.1875C136.833 26.1875 137.481 26.6818 137.481 27.5597V27.6023C137.481 28.4034 136.612 28.5739 134.379 28.7699C131.728 28.9915 129.512 29.9716 129.512 32.8693C129.512 35.4602 131.31 36.7216 133.816 36.7216ZM135.103 33.9943C134.14 33.9943 133.458 33.5341 133.458 32.6648C133.458 31.821 134.123 31.3097 135.308 31.1307C136.083 31.0199 137.038 30.8494 137.506 30.6023V31.8466C137.506 33.125 136.433 33.9943 135.103 33.9943ZM148.356 29.0341C148.364 27.5426 149.234 26.6562 150.555 26.6562C151.876 26.6562 152.66 27.5256 152.651 28.9744V36.5H156.819V28.1562C156.827 25.2074 155.029 23.2386 152.276 23.2386C150.342 23.2386 148.876 24.2188 148.296 25.8125H148.151V23.4091H144.188V36.5H148.356V29.0341ZM166.788 23.4091H164.428V20.2727H160.26V23.4091H158.53V26.4773H160.26V32.8438C160.234 35.4943 161.956 36.8239 164.896 36.6875C165.902 36.6364 166.626 36.4318 167.027 36.3125L166.396 33.304C166.217 33.3466 165.8 33.4318 165.484 33.4318C164.811 33.4318 164.428 33.1591 164.428 32.3835V26.4773H166.788V23.4091ZM173.364 29.0341C173.372 27.5426 174.259 26.6562 175.58 26.6562C176.918 26.6562 177.693 27.517 177.685 28.9744V36.5H181.852V28.1562C181.861 25.1903 180.054 23.2386 177.301 23.2386C175.341 23.2386 173.96 24.2017 173.372 25.8125H173.227V19.0455H169.196V36.5H173.364V29.0341ZM190.565 36.7472C194.681 36.7472 197.178 34.0284 197.178 29.9972C197.178 25.9574 194.681 23.2386 190.565 23.2386C186.448 23.2386 183.951 25.9574 183.951 29.9972C183.951 34.0284 186.448 36.7472 190.565 36.7472ZM190.59 33.6023C189.048 33.6023 188.195 32.1364 188.195 29.9716C188.195 27.7983 189.048 26.3239 190.59 26.3239C192.082 26.3239 192.934 27.7983 192.934 29.9716C192.934 32.1364 192.082 33.6023 190.59 33.6023ZM210.742 27.4062C210.521 24.8153 208.398 23.2386 204.853 23.2386C201.308 23.2386 199.049 24.7812 199.066 27.4062C199.049 29.4176 200.336 30.7131 202.952 31.1989L205.237 31.6335C206.319 31.8466 206.813 32.1875 206.83 32.767C206.813 33.4233 206.08 33.858 205.015 33.858C203.83 33.858 203.029 33.3466 202.85 32.392L198.734 32.4943C199.032 35.0852 201.256 36.7472 204.998 36.7472C208.501 36.7472 211.049 35 211.066 32.3068C211.049 30.3977 209.788 29.2642 207.18 28.7614L204.657 28.2841C203.549 28.0625 203.191 27.6705 203.2 27.1676C203.191 26.5028 203.967 26.0938 204.93 26.0938C206.029 26.0938 206.796 26.6818 206.915 27.5085L210.742 27.4062ZM217.286 29.0341C217.294 27.5426 218.18 26.6562 219.501 26.6562C220.839 26.6562 221.615 27.517 221.607 28.9744V36.5H225.774V28.1562C225.783 25.1903 223.976 23.2386 221.223 23.2386C219.263 23.2386 217.882 24.2017 217.294 25.8125H217.149V19.0455H213.118V36.5H217.286V29.0341ZM230.719 36.7472C231.887 36.7472 232.918 35.7585 232.935 34.5312C232.918 33.321 231.887 32.3409 230.719 32.3409C229.492 32.3409 228.487 33.321 228.504 34.5312C228.487 35.7585 229.492 36.7472 230.719 36.7472ZM235.688 36.5H239.856V29.392C239.856 27.8324 240.964 26.7841 242.455 26.7841C242.95 26.7841 243.691 26.8693 244.092 27.0057V23.3835C243.742 23.2898 243.308 23.2301 242.924 23.2301C241.492 23.2301 240.35 24.0653 239.873 25.7955H239.737V23.4091H235.688V36.5ZM248.988 36.7216C250.812 36.7216 252.073 36.0142 252.789 34.6761H252.891V36.5H256.812V27.6023C256.812 24.8324 254.349 23.2386 251.016 23.2386C247.496 23.2386 245.502 25.0114 245.17 27.3977L249.013 27.5341C249.192 26.6989 249.883 26.1875 250.982 26.1875C252.005 26.1875 252.653 26.6818 252.653 27.5597V27.6023C252.653 28.4034 251.783 28.5739 249.55 28.7699C246.9 28.9915 244.684 29.9716 244.684 32.8693C244.684 35.4602 246.482 36.7216 248.988 36.7216ZM250.275 33.9943C249.312 33.9943 248.63 33.5341 248.63 32.6648C248.63 31.821 249.295 31.3097 250.479 31.1307C251.255 31.0199 252.21 30.8494 252.678 30.6023V31.8466C252.678 33.125 251.604 33.9943 250.275 33.9943ZM259.36 23.4091V36.9602C259.36 37.8381 258.977 38.2557 257.835 38.2557C257.673 38.2557 257.528 38.2472 257.323 38.2216V41.3835C257.63 41.4006 257.869 41.4091 258.167 41.4091C261.431 41.4091 263.528 40.2841 263.528 37.0455V23.4091H259.36ZM261.44 21.8835C262.624 21.8835 263.579 20.9886 263.579 19.8892C263.579 18.7898 262.624 17.9034 261.44 17.9034C260.263 17.9034 259.3 18.7898 259.3 19.8892C259.3 20.9886 260.263 21.8835 261.44 21.8835ZM274.626 30.8494C274.626 32.375 273.655 33.2273 272.419 33.2273C271.141 33.2273 270.357 32.358 270.348 30.9347V23.4091H266.18V31.7528C266.189 34.7102 267.987 36.6705 270.68 36.6705C272.641 36.6705 274.098 35.6648 274.678 34.0625H274.814V36.5H278.786V23.4091H274.626V30.8494Z" fill="#2D3748"/>
</svg>
