<svg width="196" height="35" viewBox="0 0 196 35" fill="none" xmlns="http://www.w3.org/2000/svg">
<g clip-path="url(#clip0_7_1002)">
<path d="M35 17.5C35 27.165 27.165 35 17.5 35C7.83502 35 0 27.165 0 17.5C0 7.83502 7.83502 0 17.5 0C27.165 0 35 7.83502 35 17.5ZM9.34675 17.5C9.34675 22.0029 12.9971 25.6532 17.5 25.6532C22.0029 25.6532 25.6532 22.0029 25.6532 17.5C25.6532 12.9971 22.0029 9.34675 17.5 9.34675C12.9971 9.34675 9.34675 12.9971 9.34675 17.5Z" fill="#4FD1C5"/>
<path d="M66.3939 17.5C66.3939 27.165 58.5589 35 48.8939 35C39.2289 35 31.3939 27.165 31.3939 17.5C31.3939 7.83502 39.2289 0 48.8939 0C58.5589 0 66.3939 7.83502 66.3939 17.5ZM40.7407 17.5C40.7407 22.0029 44.391 25.6532 48.8939 25.6532C53.3968 25.6532 57.0472 22.0029 57.0472 17.5C57.0472 12.9971 53.3968 9.34675 48.8939 9.34675C44.391 9.34675 40.7407 12.9971 40.7407 17.5Z" fill="#4FD1C5"/>
<rect x="17" y="15" width="32" height="6" fill="#4FD1C5"/>
<path d="M80.9564 17.6797C80.7902 15.7365 79.1986 14.554 76.5395 14.554C73.8804 14.554 72.1865 15.7109 72.1993 17.6797C72.1865 19.1882 73.1517 20.1598 75.1141 20.5241L76.8272 20.8501C77.6389 21.0099 78.0097 21.2656 78.0225 21.7003C78.0097 22.1925 77.46 22.5185 76.661 22.5185C75.7725 22.5185 75.1716 22.1349 75.0374 21.419L71.95 21.4957C72.1738 23.4389 73.8421 24.6854 76.6482 24.6854C79.2753 24.6854 81.1865 23.375 81.1993 21.3551C81.1865 19.9233 80.2405 19.0732 78.2845 18.696L76.3925 18.3381C75.5615 18.1719 75.2931 17.8778 75.2995 17.5007C75.2931 17.0021 75.8747 16.6953 76.597 16.6953C77.4216 16.6953 77.9969 17.1364 78.0864 17.7564L80.9564 17.6797ZM85.506 24.6662C86.8739 24.6662 87.8199 24.1357 88.3568 23.1321H88.4335V24.5H91.3739V17.8267C91.3739 15.7493 89.5266 14.554 87.0273 14.554C84.3874 14.554 82.8916 15.8835 82.6423 17.6733L85.5251 17.7756C85.6594 17.1491 86.1771 16.7656 87.0017 16.7656C87.7687 16.7656 88.2545 17.1364 88.2545 17.7947V17.8267C88.2545 18.4276 87.6026 18.5554 85.9278 18.7024C83.9399 18.8686 82.278 19.6037 82.278 21.777C82.278 23.7202 83.6267 24.6662 85.506 24.6662ZM86.4712 22.6207C85.7489 22.6207 85.2375 22.2756 85.2375 21.6236C85.2375 20.9908 85.7361 20.6072 86.6246 20.473C87.2062 20.3899 87.9222 20.2621 88.2737 20.0767V21.0099C88.2737 21.9688 87.4683 22.6207 86.4712 22.6207ZM96.4108 18.9006C96.4172 17.782 97.0692 17.1172 98.0599 17.1172C99.0507 17.1172 99.6388 17.7692 99.6324 18.8558V24.5H102.758V18.2422C102.764 16.0305 101.416 14.554 99.3511 14.554C97.9001 14.554 96.8007 15.2891 96.366 16.4844H96.2574V14.6818H93.2851V24.5H96.4108V18.9006ZM110.235 14.6818H108.465V12.3295H105.339V14.6818H104.041V16.983H105.339V21.7578C105.32 23.7457 106.611 24.7429 108.816 24.6406C109.57 24.6023 110.114 24.4489 110.414 24.3594L109.941 22.103C109.807 22.1349 109.494 22.1989 109.257 22.1989C108.752 22.1989 108.465 21.9943 108.465 21.4126V16.983H110.235V14.6818ZM115.167 18.9006C115.173 17.782 115.838 17.1172 116.829 17.1172C117.832 17.1172 118.414 17.7628 118.407 18.8558V24.5H121.533V18.2422C121.54 16.0178 120.184 14.554 118.12 14.554C116.65 14.554 115.614 15.2763 115.173 16.4844H115.064V11.4091H112.041V24.5H115.167V18.9006ZM128.067 24.6854C131.155 24.6854 133.028 22.6463 133.028 19.6229C133.028 16.593 131.155 14.554 128.067 14.554C124.98 14.554 123.107 16.593 123.107 19.6229C123.107 22.6463 124.98 24.6854 128.067 24.6854ZM128.087 22.3267C126.93 22.3267 126.29 21.2273 126.29 19.6037C126.29 17.9737 126.93 16.8679 128.087 16.8679C129.205 16.8679 129.844 17.9737 129.844 19.6037C129.844 21.2273 129.205 22.3267 128.087 22.3267ZM143.201 17.6797C143.034 15.7365 141.443 14.554 138.784 14.554C136.125 14.554 134.431 15.7109 134.443 17.6797C134.431 19.1882 135.396 20.1598 137.358 20.5241L139.071 20.8501C139.883 21.0099 140.254 21.2656 140.267 21.7003C140.254 22.1925 139.704 22.5185 138.905 22.5185C138.017 22.5185 137.416 22.1349 137.282 21.419L134.194 21.4957C134.418 23.4389 136.086 24.6854 138.892 24.6854C141.519 24.6854 143.431 23.375 143.443 21.3551C143.431 19.9233 142.485 19.0732 140.529 18.696L138.637 18.3381C137.806 18.1719 137.537 17.8778 137.544 17.5007C137.537 17.0021 138.119 16.6953 138.841 16.6953C139.666 16.6953 140.241 17.1364 140.331 17.7564L143.201 17.6797ZM148.108 18.9006C148.114 17.782 148.779 17.1172 149.77 17.1172C150.774 17.1172 151.355 17.7628 151.349 18.8558V24.5H154.475V18.2422C154.481 16.0178 153.126 14.554 151.061 14.554C149.591 14.554 148.555 15.2763 148.114 16.4844H148.006V11.4091H144.982V24.5H148.108V18.9006ZM158.184 24.6854C159.059 24.6854 159.833 23.9439 159.845 23.0234C159.833 22.1158 159.059 21.3807 158.184 21.3807C157.263 21.3807 156.509 22.1158 156.522 23.0234C156.509 23.9439 157.263 24.6854 158.184 24.6854ZM161.91 24.5H165.036V19.169C165.036 17.9993 165.867 17.2131 166.985 17.2131C167.356 17.2131 167.912 17.277 168.213 17.3793V14.6626C167.951 14.5923 167.625 14.5476 167.337 14.5476C166.263 14.5476 165.407 15.174 165.049 16.4716H164.946V14.6818H161.91V24.5ZM171.885 24.6662C173.253 24.6662 174.199 24.1357 174.736 23.1321H174.812V24.5H177.753V17.8267C177.753 15.7493 175.905 14.554 173.406 14.554C170.766 14.554 169.271 15.8835 169.021 17.6733L171.904 17.7756C172.038 17.1491 172.556 16.7656 173.381 16.7656C174.148 16.7656 174.633 17.1364 174.633 17.7947V17.8267C174.633 18.4276 173.981 18.5554 172.307 18.7024C170.319 18.8686 168.657 19.6037 168.657 21.777C168.657 23.7202 170.006 24.6662 171.885 24.6662ZM172.85 22.6207C172.128 22.6207 171.616 22.2756 171.616 21.6236C171.616 20.9908 172.115 20.6072 173.003 20.473C173.585 20.3899 174.301 20.2621 174.653 20.0767V21.0099C174.653 21.9688 173.847 22.6207 172.85 22.6207ZM179.664 14.6818V24.8452C179.664 25.5036 179.376 25.8168 178.52 25.8168C178.398 25.8168 178.29 25.8104 178.136 25.7912V28.1626C178.366 28.1754 178.545 28.1818 178.769 28.1818C181.217 28.1818 182.79 27.3381 182.79 24.9091V14.6818H179.664ZM181.224 13.5376C182.112 13.5376 182.828 12.8665 182.828 12.0419C182.828 11.2173 182.112 10.5526 181.224 10.5526C180.342 10.5526 179.619 11.2173 179.619 12.0419C179.619 12.8665 180.342 13.5376 181.224 13.5376ZM191.114 20.2621C191.114 21.4062 190.385 22.0455 189.458 22.0455C188.499 22.0455 187.911 21.3935 187.905 20.326V14.6818H184.779V20.9396C184.786 23.1577 186.134 24.6278 188.154 24.6278C189.624 24.6278 190.717 23.8736 191.152 22.6719H191.254V24.5H194.233V14.6818H191.114V20.2621Z" fill="#2D3748"/>
</g>
<defs>
<clipPath id="clip0_7_1002">
<rect width="195.394" height="35" fill="white"/>
</clipPath>
</defs>
</svg>
