<svg width="144" height="25" viewBox="0 0 144 25" fill="none" xmlns="http://www.w3.org/2000/svg">
<path d="M25 12.5C25 19.4036 19.4036 25 12.5 25C5.59644 25 0 19.4036 0 12.5C0 5.59644 5.59644 0 12.5 0C19.4036 0 25 5.59644 25 12.5ZM6.67625 12.5C6.67625 15.7164 9.28363 18.3238 12.5 18.3238C15.7164 18.3238 18.3238 15.7164 18.3238 12.5C18.3238 9.28363 15.7164 6.67625 12.5 6.67625C9.28363 6.67625 6.67625 9.28363 6.67625 12.5Z" fill="#4FD1C5"/>
<path d="M42 12.5C42 19.4036 36.4036 25 29.5 25C22.5964 25 17 19.4036 17 12.5C17 5.59644 22.5964 0 29.5 0C36.4036 0 42 5.59644 42 12.5ZM23.6762 12.5C23.6762 15.7164 26.2836 18.3238 29.5 18.3238C32.7164 18.3238 35.3238 15.7164 35.3238 12.5C35.3238 9.28363 32.7164 6.67625 29.5 6.67625C26.2836 6.67625 23.6762 9.28363 23.6762 12.5Z" fill="#4FD1C5"/>
<rect x="12" y="10" width="20" height="5" fill="#4FD1C5"/>
<path d="M54.4375 12.1953C54.3082 10.6839 53.0703 9.7642 51.0021 9.7642C48.9339 9.7642 47.6165 10.6641 47.6264 12.1953C47.6165 13.3686 48.3672 14.1243 49.8935 14.4077L51.2259 14.6612C51.8572 14.7855 52.1456 14.9844 52.1555 15.3224C52.1456 15.7053 51.718 15.9588 51.0966 15.9588C50.4055 15.9588 49.9382 15.6605 49.8338 15.1037L47.4325 15.1634C47.6065 16.6747 48.9041 17.6442 51.0866 17.6442C53.13 17.6442 54.6165 16.625 54.6264 15.054C54.6165 13.9403 53.8807 13.2791 52.3594 12.9858L50.8878 12.7074C50.2415 12.5781 50.0327 12.3494 50.0376 12.0561C50.0327 11.6683 50.4851 11.4297 51.0469 11.4297C51.6882 11.4297 52.1357 11.7727 52.2053 12.255L54.4375 12.1953ZM57.976 17.6293C59.04 17.6293 59.7757 17.2166 60.1934 16.4361H60.253V17.5H62.54V12.3097C62.54 10.6939 61.1032 9.7642 59.1593 9.7642C57.106 9.7642 55.9426 10.7983 55.7488 12.1903L57.9909 12.2699C58.0953 11.7827 58.498 11.4844 59.1394 11.4844C59.736 11.4844 60.1138 11.7727 60.1138 12.2848V12.3097C60.1138 12.777 59.6067 12.8764 58.3042 12.9908C56.758 13.12 55.4654 13.6918 55.4654 15.3821C55.4654 16.8935 56.5144 17.6293 57.976 17.6293ZM58.7267 16.0384C58.165 16.0384 57.7672 15.7699 57.7672 15.2628C57.7672 14.7706 58.155 14.4723 58.8461 14.3679C59.2985 14.3033 59.8553 14.2038 60.1287 14.0597V14.7855C60.1287 15.5312 59.5023 16.0384 58.7267 16.0384ZM66.4576 13.1449C66.4625 12.2749 66.9696 11.7578 67.7402 11.7578C68.5108 11.7578 68.9682 12.2649 68.9632 13.1101V17.5H71.3944V12.6328C71.3993 10.9126 70.3503 9.7642 68.7445 9.7642C67.6159 9.7642 66.7608 10.3359 66.4228 11.2656H66.3382V9.86364H64.0265V17.5H66.4576V13.1449ZM77.2099 9.86364H75.8327V8.03409H73.4016V9.86364H72.3924V11.6534H73.4016V15.3672C73.3867 16.9134 74.391 17.6889 76.1062 17.6094C76.6928 17.5795 77.1154 17.4602 77.3491 17.3906L76.9812 15.6357C76.8768 15.6605 76.6332 15.7102 76.4492 15.7102C76.0565 15.7102 75.8327 15.5511 75.8327 15.0987V11.6534H77.2099V9.86364ZM81.0455 13.1449C81.0504 12.2749 81.5675 11.7578 82.3381 11.7578C83.1186 11.7578 83.571 12.2599 83.5661 13.1101V17.5H85.9972V12.6328C86.0021 10.9027 84.9482 9.7642 83.3423 9.7642C82.1989 9.7642 81.3935 10.326 81.0504 11.2656H80.9659V7.31818H78.6143V17.5H81.0455V13.1449ZM91.0794 17.6442C93.4806 17.6442 94.9373 16.0582 94.9373 13.7067C94.9373 11.3501 93.4806 9.7642 91.0794 9.7642C88.6781 9.7642 87.2214 11.3501 87.2214 13.7067C87.2214 16.0582 88.6781 17.6442 91.0794 17.6442ZM91.0943 15.8097C90.1944 15.8097 89.6973 14.9545 89.6973 13.6918C89.6973 12.424 90.1944 11.5639 91.0943 11.5639C91.9643 11.5639 92.4615 12.424 92.4615 13.6918C92.4615 14.9545 91.9643 15.8097 91.0943 15.8097ZM102.85 12.1953C102.72 10.6839 101.482 9.7642 99.4142 9.7642C97.3461 9.7642 96.0286 10.6641 96.0385 12.1953C96.0286 13.3686 96.7793 14.1243 98.3056 14.4077L99.638 14.6612C100.269 14.7855 100.558 14.9844 100.568 15.3224C100.558 15.7053 100.13 15.9588 99.5087 15.9588C98.8176 15.9588 98.3503 15.6605 98.2459 15.1037L95.8446 15.1634C96.0186 16.6747 97.3162 17.6442 99.4988 17.6442C101.542 17.6442 103.029 16.625 103.039 15.054C103.029 13.9403 102.293 13.2791 100.771 12.9858L99.2999 12.7074C98.6536 12.5781 98.4448 12.3494 98.4498 12.0561C98.4448 11.6683 98.8972 11.4297 99.459 11.4297C100.1 11.4297 100.548 11.7727 100.617 12.255L102.85 12.1953ZM106.667 13.1449C106.672 12.2749 107.189 11.7578 107.959 11.7578C108.74 11.7578 109.192 12.2599 109.187 13.1101V17.5H111.618V12.6328C111.623 10.9027 110.569 9.7642 108.963 9.7642C107.82 9.7642 107.015 10.326 106.672 11.2656H106.587V7.31818H104.235V17.5H106.667V13.1449ZM114.503 17.6442C115.184 17.6442 115.786 17.0675 115.796 16.3516C115.786 15.6456 115.184 15.0739 114.503 15.0739C113.787 15.0739 113.2 15.6456 113.21 16.3516C113.2 17.0675 113.787 17.6442 114.503 17.6442ZM117.401 17.5H119.833V13.3537C119.833 12.4439 120.479 11.8324 121.349 11.8324C121.637 11.8324 122.07 11.8821 122.303 11.9616V9.84872C122.1 9.79403 121.846 9.75923 121.622 9.75923C120.787 9.75923 120.121 10.2464 119.843 11.2557H119.763V9.86364H117.401V17.5ZM125.16 17.6293C126.224 17.6293 126.959 17.2166 127.377 16.4361H127.437V17.5H129.724V12.3097C129.724 10.6939 128.287 9.7642 126.343 9.7642C124.29 9.7642 123.126 10.7983 122.932 12.1903L125.175 12.2699C125.279 11.7827 125.682 11.4844 126.323 11.4844C126.92 11.4844 127.297 11.7727 127.297 12.2848V12.3097C127.297 12.777 126.79 12.8764 125.488 12.9908C123.942 13.12 122.649 13.6918 122.649 15.3821C122.649 16.8935 123.698 17.6293 125.16 17.6293ZM125.91 16.0384C125.349 16.0384 124.951 15.7699 124.951 15.2628C124.951 14.7706 125.339 14.4723 126.03 14.3679C126.482 14.3033 127.039 14.2038 127.312 14.0597V14.7855C127.312 15.5312 126.686 16.0384 125.91 16.0384ZM131.21 9.86364V17.7685C131.21 18.2805 130.986 18.5241 130.32 18.5241C130.226 18.5241 130.141 18.5192 130.022 18.5043V20.3487C130.201 20.3587 130.34 20.3636 130.514 20.3636C132.418 20.3636 133.641 19.7074 133.641 17.8182V9.86364H131.21ZM132.423 8.97372C133.114 8.97372 133.671 8.4517 133.671 7.81037C133.671 7.16903 133.114 6.65199 132.423 6.65199C131.737 6.65199 131.175 7.16903 131.175 7.81037C131.175 8.4517 131.737 8.97372 132.423 8.97372ZM140.115 14.2038C140.115 15.0938 139.549 15.5909 138.828 15.5909C138.082 15.5909 137.625 15.0838 137.62 14.2536V9.86364H135.189V14.7308C135.194 16.456 136.243 17.5994 137.814 17.5994C138.957 17.5994 139.807 17.0128 140.145 16.0781H140.225V17.5H142.542V9.86364H140.115V14.2038Z" fill="#2D3748"/>
</svg>
