<svg width="383" height="75" viewBox="0 0 383 75" fill="none" xmlns="http://www.w3.org/2000/svg">
<path d="M75 37.5C75 58.2107 58.2107 75 37.5 75C16.7893 75 0 58.2107 0 37.5C0 16.7893 16.7893 0 37.5 0C58.2107 0 75 16.7893 75 37.5ZM20.0294 37.5C20.0294 47.1488 27.8512 54.9706 37.5 54.9706C47.1488 54.9706 54.9706 47.1488 54.9706 37.5C54.9706 27.8512 47.1488 20.0294 37.5 20.0294C27.8512 20.0294 20.0294 27.8512 20.0294 37.5Z" fill="#4FD1C5"/>
<path d="M125 37.5C125 58.2107 108.211 75 87.5 75C66.7893 75 50 58.2107 50 37.5C50 16.7893 66.7893 0 87.5 0C108.211 0 125 16.7893 125 37.5ZM70.0294 37.5C70.0294 47.1488 77.8512 54.9706 87.5 54.9706C97.1488 54.9706 104.971 47.1488 104.971 37.5C104.971 27.8512 97.1488 20.0294 87.5 20.0294C77.8512 20.0294 70.0294 27.8512 70.0294 37.5Z" fill="#4FD1C5"/>
<rect x="29" y="28" width="65" height="20" fill="#4FD1C5"/>
<path d="M154.125 36.8594C153.793 32.973 150.609 30.608 145.291 30.608C139.973 30.608 136.585 32.9219 136.611 36.8594C136.585 39.8764 138.516 41.8196 142.44 42.5483L145.866 43.2003C147.49 43.5199 148.232 44.0312 148.257 44.9006C148.232 45.8849 147.132 46.5369 145.534 46.5369C143.757 46.5369 142.555 45.7699 142.287 44.3381L136.112 44.4915C136.56 48.3778 139.896 50.8707 145.509 50.8707C150.763 50.8707 154.585 48.25 154.611 44.2102C154.585 41.3466 152.693 39.6463 148.781 38.892L144.997 38.1761C143.335 37.8438 142.798 37.2557 142.811 36.5014C142.798 35.5043 143.962 34.8906 145.406 34.8906C147.055 34.8906 148.206 35.7727 148.385 37.0128L154.125 36.8594ZM163.224 50.8324C165.96 50.8324 167.852 49.7713 168.926 47.7642H169.079V50.5H174.96V37.1534C174.96 32.9986 171.265 30.608 166.267 30.608C160.987 30.608 157.995 33.267 157.497 36.8466L163.262 37.0511C163.531 35.7983 164.566 35.0312 166.216 35.0312C167.75 35.0312 168.721 35.7727 168.721 37.0895V37.1534C168.721 38.3551 167.417 38.6108 164.068 38.9048C160.092 39.2372 156.768 40.7074 156.768 45.054C156.768 48.9403 159.466 50.8324 163.224 50.8324ZM165.154 46.7415C163.71 46.7415 162.687 46.0511 162.687 44.7472C162.687 43.4815 163.684 42.7145 165.461 42.446C166.625 42.2798 168.056 42.0241 168.76 41.6534V43.5199C168.76 45.4375 167.149 46.7415 165.154 46.7415ZM185.034 39.3011C185.047 37.0639 186.35 35.7344 188.332 35.7344C190.314 35.7344 191.49 37.0384 191.477 39.2116V50.5H197.728V37.9844C197.741 33.5611 195.044 30.608 190.914 30.608C188.012 30.608 185.814 32.0781 184.944 34.4688H184.727V30.8636H178.782V50.5H185.034V39.3011ZM212.683 30.8636H209.141V26.1591H202.89V30.8636H200.295V35.4659H202.89V45.0156C202.852 48.9915 205.434 50.9858 209.844 50.7812C211.353 50.7045 212.44 50.3977 213.04 50.2188L212.094 45.706C211.826 45.7699 211.2 45.8977 210.727 45.8977C209.717 45.8977 209.141 45.4886 209.141 44.3253V35.4659H212.683V30.8636ZM222.545 39.3011C222.558 37.0639 223.888 35.7344 225.869 35.7344C227.876 35.7344 229.04 37.0256 229.027 39.2116V50.5H235.278V37.9844C235.291 33.5355 232.581 30.608 228.452 30.608C225.511 30.608 223.44 32.0526 222.558 34.4688H222.341V24.3182H216.294V50.5H222.545V39.3011ZM248.347 50.8707C254.522 50.8707 258.267 46.7926 258.267 40.7457C258.267 34.6861 254.522 30.608 248.347 30.608C242.172 30.608 238.426 34.6861 238.426 40.7457C238.426 46.7926 242.172 50.8707 248.347 50.8707ZM248.385 46.1534C246.071 46.1534 244.793 43.9545 244.793 40.7074C244.793 37.4474 246.071 35.2358 248.385 35.2358C250.623 35.2358 251.901 37.4474 251.901 40.7074C251.901 43.9545 250.623 46.1534 248.385 46.1534ZM278.613 36.8594C278.281 32.973 275.098 30.608 269.779 30.608C264.461 30.608 261.074 32.9219 261.099 36.8594C261.074 39.8764 263.004 41.8196 266.929 42.5483L270.355 43.2003C271.978 43.5199 272.72 44.0312 272.745 44.9006C272.72 45.8849 271.62 46.5369 270.022 46.5369C268.245 46.5369 267.044 45.7699 266.775 44.3381L260.6 44.4915C261.048 48.3778 264.385 50.8707 269.997 50.8707C275.251 50.8707 279.074 48.25 279.099 44.2102C279.074 41.3466 277.181 39.6463 273.27 38.892L269.485 38.1761C267.824 37.8438 267.287 37.2557 267.299 36.5014C267.287 35.5043 268.45 34.8906 269.895 34.8906C271.544 34.8906 272.694 35.7727 272.873 37.0128L278.613 36.8594ZM288.428 39.3011C288.441 37.0639 289.771 35.7344 291.752 35.7344C293.759 35.7344 294.923 37.0256 294.91 39.2116V50.5H301.161V37.9844C301.174 33.5355 298.464 30.608 294.335 30.608C291.394 30.608 289.323 32.0526 288.441 34.4688H288.224V24.3182H282.177V50.5H288.428V39.3011ZM308.579 50.8707C310.331 50.8707 311.877 49.3878 311.903 47.5469C311.877 45.7315 310.331 44.2614 308.579 44.2614C306.738 44.2614 305.23 45.7315 305.255 47.5469C305.23 49.3878 306.738 50.8707 308.579 50.8707ZM316.032 50.5H322.284V39.8381C322.284 37.4986 323.946 35.9261 326.183 35.9261C326.924 35.9261 328.037 36.054 328.637 36.2585V30.8253C328.113 30.6847 327.461 30.5952 326.886 30.5952C324.738 30.5952 323.025 31.848 322.309 34.4432H322.105V30.8636H316.032V50.5ZM335.982 50.8324C338.718 50.8324 340.61 49.7713 341.684 47.7642H341.837V50.5H347.718V37.1534C347.718 32.9986 344.023 30.608 339.025 30.608C333.745 30.608 330.753 33.267 330.255 36.8466L336.02 37.0511C336.289 35.7983 337.324 35.0312 338.973 35.0312C340.507 35.0312 341.479 35.7727 341.479 37.0895V37.1534C341.479 38.3551 340.175 38.6108 336.826 38.9048C332.85 39.2372 329.526 40.7074 329.526 45.054C329.526 48.9403 332.223 50.8324 335.982 50.8324ZM337.912 46.7415C336.468 46.7415 335.445 46.0511 335.445 44.7472C335.445 43.4815 336.442 42.7145 338.219 42.446C339.382 42.2798 340.814 42.0241 341.517 41.6534V43.5199C341.517 45.4375 339.907 46.7415 337.912 46.7415ZM351.54 30.8636V51.1903C351.54 52.5071 350.965 53.1335 349.252 53.1335C349.009 53.1335 348.792 53.1207 348.485 53.0824V57.8253C348.945 57.8509 349.303 57.8636 349.75 57.8636C354.647 57.8636 357.792 56.1761 357.792 51.3182V30.8636H351.54ZM354.659 28.5753C356.436 28.5753 357.868 27.233 357.868 25.5838C357.868 23.9347 356.436 22.6051 354.659 22.6051C352.895 22.6051 351.451 23.9347 351.451 25.5838C351.451 27.233 352.895 28.5753 354.659 28.5753ZM374.44 42.0241C374.44 44.3125 372.982 45.5909 371.129 45.5909C369.211 45.5909 368.035 44.2869 368.022 42.152V30.8636H361.771V43.3793C361.783 47.8153 364.481 50.7557 368.521 50.7557C371.461 50.7557 373.647 49.2472 374.516 46.8438H374.721V50.5H380.678V30.8636H374.44V42.0241Z" fill="#2D3748"/>
</svg>
