<svg width="217" height="171" viewBox="0 0 217 171" fill="none" xmlns="http://www.w3.org/2000/svg">
<path d="M0 5C0 2.23858 2.23858 0 5 0H212C214.761 0 217 2.23858 217 5V166C217 168.761 214.761 171 212 171H5C2.23858 171 0 168.761 0 166V5Z" fill="#C4C4C4"/>
<path d="M127.028 58.0477C133.63 55.1898 141 60.0303 141 67.2249L141 109C141 114.523 136.523 119 131 119L86 119C80.4772 119 76 114.523 76 109L76 67.6118C76 60.3182 83.5561 55.4782 90.1814 58.528L103.444 64.633C106.025 65.8211 108.99 65.8551 111.598 64.7264L127.028 58.0477Z" fill="black" fill-opacity="0.24"/>
<circle cx="120.5" cy="80.5" r="7.5" fill="black" fill-opacity="0.24"/>
</svg>
